<svg width="86" height="86" viewBox="0 0 86 86" fill="none" xmlns="http://www.w3.org/2000/svg">
<circle cx="43" cy="43" r="42" stroke="#243FD6" stroke-width="2"/>
<path d="M46.0044 50.2747C45.5719 49.8422 44.8732 49.8422 44.4406 50.2747L39.9155 54.7998C39.3499 55.3655 36.4552 54.578 33.4495 51.5724C30.4439 48.5667 29.6454 45.672 30.2221 45.1064L34.7472 40.5813C34.9579 40.3705 35.0688 40.0933 35.0688 39.7938C35.0688 39.4944 34.9468 39.2171 34.7472 39.0064L21.671 25.9524C21.2384 25.5198 20.5397 25.5198 20.1072 25.9524L16.7355 29.324C14.2734 31.7862 14.1292 36.1671 16.3252 41.646C18.4103 46.8144 22.3586 52.4707 27.4494 57.5615C35.4459 65.558 44.2299 70.2162 50.2966 70.2162C52.5148 70.2162 54.3781 69.5951 55.6979 68.2753L59.0695 64.9036C59.2803 64.6929 59.3912 64.4156 59.3912 64.1162C59.3912 63.8167 59.2692 63.5395 59.0695 63.3287L46.0044 50.2747ZM54.123 66.7004C50.6515 70.1718 39.727 66.7004 29.0132 55.9865C24.1221 51.0955 20.3512 45.7053 18.377 40.8142C16.5581 36.278 16.5359 32.6513 18.2994 30.8878L20.8835 28.3036L32.3737 39.7938L28.6361 43.5315C26.5621 45.6054 28.7581 50.0307 31.8635 53.1362C34.9801 56.2527 39.3943 58.4376 41.4683 56.3636L45.2059 52.626L56.6961 64.1162L54.123 66.7004ZM41.8897 14.7838C41.2797 14.7838 40.7806 15.2829 40.7806 15.8929C40.7806 16.5029 41.2797 17.002 41.8897 17.002C56.2857 17.002 68.0088 28.714 68.0088 43.1211C68.0088 43.7311 68.5079 44.2302 69.1179 44.2302C69.7279 44.2302 70.227 43.7311 70.227 43.1211C70.227 27.494 57.5168 14.7838 41.8897 14.7838Z" fill="#0039A9"/>
<path d="M41.8899 22.5585C41.2799 22.5585 40.7808 23.0576 40.7808 23.6676C40.7808 24.2776 41.2799 24.7767 41.8899 24.7767C52.0048 24.7767 60.2231 33.0061 60.2231 43.1099C60.2231 43.7199 60.7222 44.219 61.3322 44.219C61.9422 44.219 62.4413 43.7199 62.4413 43.1099C62.4524 31.7861 53.2248 22.5585 41.8899 22.5585Z" fill="#0039A9"/>
<path d="M52.4484 43.11C52.4484 43.72 52.9475 44.2191 53.5575 44.2191C54.1675 44.2191 54.6666 43.72 54.6666 43.11C54.6666 36.0673 48.9326 30.3333 41.8899 30.3333C41.2799 30.3333 40.7808 30.8323 40.7808 31.4423C40.7808 32.0523 41.2799 32.5514 41.8899 32.5514C47.7126 32.5625 52.4484 37.2983 52.4484 43.11Z" fill="#0039A9"/>
</svg>
