<svg width="89" height="86" viewBox="0 0 89 86" fill="none" xmlns="http://www.w3.org/2000/svg">
<path d="M24.5522 24.3333C20.6944 24.3333 17.5522 27.4754 17.5522 31.3333V54.6666C17.5522 58.5244 20.6944 61.6666 24.5522 61.6666H61.8856C65.7434 61.6666 68.8856 58.5244 68.8856 54.6666V31.3333C68.8856 27.4754 65.7434 24.3333 61.8856 24.3333H24.5522ZM24.5522 26.6666H61.8856C64.4911 26.6666 66.5522 28.7277 66.5522 31.3333V54.6666C66.5522 57.2721 64.4911 59.3332 61.8856 59.3332H24.5522C21.9467 59.3332 19.8856 57.2721 19.8856 54.6666V31.3333C19.8856 28.7277 21.9467 26.6666 24.5522 26.6666Z" fill="#243FD6"/>
<path d="M25.7529 31.3334C25.594 31.3288 25.4358 31.3568 25.2881 31.4155C25.1404 31.4743 25.0062 31.5627 24.8939 31.6752C24.6751 31.894 24.5522 32.1907 24.5522 32.5001C24.5522 32.8094 24.6751 33.1062 24.8939 33.3249L38.8939 47.3249C41.2727 49.7038 45.1648 49.7038 47.5437 47.3249L61.5437 33.3249C61.7624 33.1062 61.8853 32.8094 61.8853 32.5001C61.8853 32.1907 61.7624 31.894 61.5437 31.6752C61.3249 31.4564 61.0282 31.3335 60.7188 31.3335C60.4094 31.3335 60.1127 31.4564 59.8939 31.6752L45.8939 45.6752C44.4067 47.1623 42.0308 47.1623 40.5437 45.6752L26.5437 31.6752C26.3334 31.4645 26.0505 31.3423 25.753 31.3334H25.7529Z" fill="#243FD6"/>
<circle cx="43.2192" cy="43" r="42" stroke="#243FD6" stroke-width="2"/>
</svg>
