<svg width="86" height="86" viewBox="0 0 86 86" fill="none" xmlns="http://www.w3.org/2000/svg">
<circle cx="43" cy="43" r="42" stroke="#243FD6" stroke-width="2"/>
<path d="M43.5002 68.7339L42.5914 67.4188C41.908 66.4284 25.8335 43.051 25.8335 33.6667C25.8335 23.9257 33.7592 16 43.5002 16C53.2411 16 61.1668 23.9257 61.1668 33.6667C61.1668 43.051 45.0924 66.4284 44.4089 67.4188L43.5002 68.7339ZM43.5002 18.2083C34.976 18.2083 28.0418 25.1425 28.0418 33.6667C28.0418 41.1606 40.0607 59.6753 43.5002 64.8196C46.9396 59.6753 58.9585 41.1606 58.9585 33.6667C58.9585 25.1425 52.0243 18.2083 43.5002 18.2083Z" fill="#243FD6"/>
<path d="M43.5002 41.3958C39.2392 41.3958 35.771 37.9287 35.771 33.6667C35.771 29.4046 39.2392 25.9375 43.5002 25.9375C47.7611 25.9375 51.2293 29.4046 51.2293 33.6667C51.2293 37.9287 47.7611 41.3958 43.5002 41.3958ZM43.5002 28.1458C40.456 28.1458 37.9793 30.6225 37.9793 33.6667C37.9793 36.7109 40.456 39.1875 43.5002 39.1875C46.5443 39.1875 49.021 36.7109 49.021 33.6667C49.021 30.6225 46.5443 28.1458 43.5002 28.1458Z" fill="#243FD6"/>
</svg>
