<svg width="108" height="168" viewBox="0 0 108 168" fill="none" xmlns="http://www.w3.org/2000/svg">
<g clip-path="url(#clip0_270_2509)">
<path d="M84.9448 59.8889C84.9448 76.9472 71.1151 90.7778 54.0559 90.7778C36.9966 90.7778 23.167 76.9472 23.167 59.8889C23.167 42.8306 36.9966 29 54.0559 29C71.1151 29 84.9448 42.8306 84.9448 59.8889Z" fill="#757575"/>
<path d="M0 152.556C0 122.707 24.2017 98.5 54.0556 98.5C83.9094 98.5 108.111 122.707 108.111 152.556V160.278C108.111 164.546 104.653 168 100.389 168H7.72222C5.57014 168 3.62356 167.11 2.22278 165.692C1.42341 164.878 0.801256 163.898 0.421366 162.797C0.147997 162.012 0 161.168 0 160.278V152.556Z" fill="#757575"/>
<g filter="url(#filter0_d_270_2509)">
<path d="M89.6376 61C99.6305 61 107.731 52.2696 107.731 41.5C107.731 30.7304 99.6305 22 89.6376 22C79.6448 22 71.5439 30.7304 71.5439 41.5C71.5439 52.2696 79.6448 61 89.6376 61Z" fill="white"/>
<path d="M107.231 41.5C107.231 52.0293 99.3198 60.5 89.6377 60.5C79.9555 60.5 72.0439 52.0293 72.0439 41.5C72.0439 30.9707 79.9555 22.5 89.6377 22.5C99.3198 22.5 107.231 30.9707 107.231 41.5Z" stroke="#E5E5E5"/>
</g>
<path d="M97.19 36.9262L94.8047 34.3602C94.6989 34.2461 94.5731 34.1555 94.4347 34.0936C94.2962 34.0318 94.1478 34 93.9978 34C93.8479 34 93.6995 34.0318 93.561 34.0936C93.4226 34.1555 93.2968 34.2461 93.191 34.3602L83.4871 44.8603L82.7015 48.5227C82.668 48.7003 82.6715 48.8836 82.7118 49.0595C82.752 49.2353 82.828 49.3995 82.9343 49.54C83.0405 49.6805 83.1744 49.794 83.3263 49.8722C83.4782 49.9504 83.6443 49.9914 83.8127 49.9923C83.8997 50.0026 83.9875 50.0026 84.0746 49.9923L87.5074 49.1775L97.19 38.6623C97.2961 38.5484 97.3804 38.4131 97.4378 38.2642C97.4953 38.1152 97.5249 37.9555 97.5249 37.7943C97.5249 37.633 97.4953 37.4733 97.4378 37.3244C97.3804 37.1754 97.2961 37.0401 97.19 36.9262ZM86.7713 47.7689L84.1807 48.3857L84.7824 45.6217L92.0868 37.7105L94.0828 39.8577L86.7713 47.7689ZM94.8826 38.9973L92.8866 36.8501L93.9837 35.647L95.9938 37.8095L94.8826 38.9973Z" fill="#272727"/>
</g>
<defs>
<filter id="filter0_d_270_2509" x="41.5439" y="0" width="96.1875" height="99" filterUnits="userSpaceOnUse" color-interpolation-filters="sRGB">
<feFlood flood-opacity="0" result="BackgroundImageFix"/>
<feColorMatrix in="SourceAlpha" type="matrix" values="0 0 0 0 0 0 0 0 0 0 0 0 0 0 0 0 0 0 127 0" result="hardAlpha"/>
<feOffset dy="8"/>
<feGaussianBlur stdDeviation="15"/>
<feColorMatrix type="matrix" values="0 0 0 0 0 0 0 0 0 0 0 0 0 0 0 0 0 0 0.05 0"/>
<feBlend mode="normal" in2="BackgroundImageFix" result="effect1_dropShadow_270_2509"/>
<feBlend mode="normal" in="SourceGraphic" in2="effect1_dropShadow_270_2509" result="shape"/>
</filter>
<clipPath id="clip0_270_2509">
<rect width="108" height="168" fill="white"/>
</clipPath>
</defs>
</svg>
