<svg width="20" height="20" viewBox="0 0 20 20" fill="none" xmlns="http://www.w3.org/2000/svg">
<path d="M17.875 2.125H12.25V1.5625C12.25 1.41332 12.1907 1.27024 12.0852 1.16475C11.9798 1.05926 11.8367 1 11.6875 1H8.3125C8.16332 1 8.02024 1.05926 7.91475 1.16475C7.80926 1.27024 7.75 1.41332 7.75 1.5625V2.125H2.125C1.82663 2.125 1.54048 2.24353 1.3295 2.4545C1.11853 2.66548 1 2.95163 1 3.25L1 15.625C1 15.9234 1.11853 16.2095 1.3295 16.4205C1.54048 16.6315 1.82663 16.75 2.125 16.75H9.4375V17.875H7.75C7.75 18.1734 7.86853 18.4595 8.0795 18.6705C8.29048 18.8815 8.57663 19 8.875 19H11.125C11.4234 19 11.7095 18.8815 11.9205 18.6705C12.1315 18.4595 12.25 18.1734 12.25 17.875H10.5625V16.75H17.875C18.1734 16.75 18.4595 16.6315 18.6705 16.4205C18.8815 16.2095 19 15.9234 19 15.625V3.25C19 2.95163 18.8815 2.66548 18.6705 2.4545C18.4595 2.24353 18.1734 2.125 17.875 2.125ZM17.875 15.625H2.125V3.25H17.875V15.625Z" fill="#757575"/>
<path d="M10.5622 10.3319L8.71158 8.48125C8.60619 8.37648 8.46362 8.31768 8.31502 8.31768C8.16641 8.31768 8.02385 8.37648 7.91846 8.48125L4.54346 11.8562L5.33658 12.6494L8.31221 9.66812L10.1628 11.5188C10.2682 11.6235 10.4108 11.6823 10.5594 11.6823C10.708 11.6823 10.8506 11.6235 10.956 11.5188L14.4997 7.98062V9.4375H15.6247V6.625C15.6247 6.47582 15.5654 6.33274 15.46 6.22725C15.3545 6.12176 15.2114 6.0625 15.0622 6.0625H12.2497V7.1875H13.7066L10.5622 10.3319Z" fill="#757575"/>
</svg>
