<svg width="23" height="23" viewBox="0 0 23 23" fill="none" xmlns="http://www.w3.org/2000/svg">
<g clip-path="url(#clip0_262_859)">
<path d="M11.6954 8.36377C10.0122 8.36377 8.64429 9.76989 8.64429 11.5001C8.64429 13.2304 10.0122 14.6365 11.6954 14.6365C13.3786 14.6365 14.7465 13.2304 14.7465 11.5001C14.7465 9.76989 13.3786 8.36377 11.6954 8.36377Z" fill="#7D90B2"/>
<path d="M11.6957 3.65918C6.61052 3.65918 2.26779 6.91051 0.508301 11.5001C2.26779 16.0896 6.61052 19.341 11.6957 19.341C16.786 19.341 21.1237 16.0896 22.8831 11.5001C21.1237 6.91051 16.786 3.65918 11.6957 3.65918ZM11.6957 16.7273C8.8887 16.7273 6.61052 14.3855 6.61052 11.5C6.61052 8.61459 8.8887 6.2728 11.6957 6.2728C14.5027 6.2728 16.7809 8.61464 16.7809 11.5001C16.7809 14.3856 14.5027 16.7273 11.6957 16.7273Z" fill="#7D90B2"/>
</g>
<defs>
<clipPath id="clip0_262_859">
<rect width="22.3748" height="23" fill="white" transform="translate(0.508301)"/>
</clipPath>
</defs>
</svg>
