<svg width="138" height="168" viewBox="0 0 138 168" fill="none" xmlns="http://www.w3.org/2000/svg">
<path d="M84.9445 59.8889C84.9445 76.9472 71.1148 90.7778 54.0556 90.7778C36.9963 90.7778 23.1667 76.9472 23.1667 59.8889C23.1667 42.8306 36.9963 29 54.0556 29C71.1148 29 84.9445 42.8306 84.9445 59.8889Z" fill="#757575"/>
<path d="M0 152.556C0 122.707 24.2017 98.5 54.0556 98.5C83.9094 98.5 108.111 122.707 108.111 152.556V160.278C108.111 164.546 104.653 168 100.389 168H7.72222C5.57014 168 3.62356 167.11 2.22278 165.692C1.42341 164.878 0.801256 163.898 0.421366 162.797C0.147997 162.012 0 161.168 0 160.278V152.556Z" fill="#757575"/>
<g filter="url(#filter0_d_164_2216)">
<ellipse cx="89.6377" cy="41.5" rx="18.0937" ry="19.5" fill="white"/>
<path d="M107.231 41.5C107.231 52.0293 99.3198 60.5 89.6377 60.5C79.9555 60.5 72.0439 52.0293 72.0439 41.5C72.0439 30.9707 79.9555 22.5 89.6377 22.5C99.3198 22.5 107.231 30.9707 107.231 41.5Z" stroke="#E5E5E5"/>
</g>
<path d="M97.1895 36.9262L94.8042 34.3602C94.6984 34.2461 94.5726 34.1555 94.4342 34.0936C94.2957 34.0318 94.1473 34 93.9973 34C93.8474 34 93.699 34.0318 93.5605 34.0936C93.4221 34.1555 93.2963 34.2461 93.1905 34.3602L83.4866 44.8603L82.701 48.5227C82.6675 48.7003 82.671 48.8836 82.7113 49.0595C82.7515 49.2353 82.8275 49.3995 82.9338 49.54C83.04 49.6805 83.1739 49.794 83.3258 49.8722C83.4777 49.9504 83.6438 49.9914 83.8122 49.9923C83.8992 50.0026 83.987 50.0026 84.0741 49.9923L87.5069 49.1775L97.1895 38.6623C97.2956 38.5484 97.3799 38.4131 97.4373 38.2642C97.4948 38.1152 97.5244 37.9555 97.5244 37.7943C97.5244 37.633 97.4948 37.4733 97.4373 37.3244C97.3799 37.1754 97.2956 37.0401 97.1895 36.9262ZM86.7708 47.7689L84.1802 48.3857L84.7819 45.6217L92.0863 37.7105L94.0823 39.8577L86.7708 47.7689ZM94.8821 38.9973L92.8861 36.8501L93.9832 35.647L95.9933 37.8095L94.8821 38.9973Z" fill="#272727"/>
<defs>
<filter id="filter0_d_164_2216" x="41.5439" y="0" width="96.1875" height="99" filterUnits="userSpaceOnUse" color-interpolation-filters="sRGB">
<feFlood flood-opacity="0" result="BackgroundImageFix"/>
<feColorMatrix in="SourceAlpha" type="matrix" values="0 0 0 0 0 0 0 0 0 0 0 0 0 0 0 0 0 0 127 0" result="hardAlpha"/>
<feOffset dy="8"/>
<feGaussianBlur stdDeviation="15"/>
<feColorMatrix type="matrix" values="0 0 0 0 0 0 0 0 0 0 0 0 0 0 0 0 0 0 0.05 0"/>
<feBlend mode="normal" in2="BackgroundImageFix" result="effect1_dropShadow_164_2216"/>
<feBlend mode="normal" in="SourceGraphic" in2="effect1_dropShadow_164_2216" result="shape"/>
</filter>
</defs>
</svg>
