<svg width="109" height="139" viewBox="0 0 109 139" fill="none" xmlns="http://www.w3.org/2000/svg">
<path d="M84.9444 30.8889C84.9444 47.9472 71.1148 61.7778 54.0556 61.7778C36.9963 61.7778 23.1667 47.9472 23.1667 30.8889C23.1667 13.8306 36.9963 0 54.0556 0C71.1148 0 84.9444 13.8306 84.9444 30.8889Z" fill="#757575"/>
<path d="M0 123.556C0 93.7074 24.2017 69.5 54.0556 69.5C83.9094 69.5 108.111 93.7074 108.111 123.556V131.278C108.111 135.546 104.653 139 100.389 139H7.72222C5.57014 139 3.62356 138.11 2.22278 136.692C1.42341 135.878 0.801256 134.898 0.421366 133.797C0.147997 133.012 0 132.168 0 131.278V123.556Z" fill="#757575"/>
</svg>
