<svg width="80" height="80" viewBox="0 0 80 80" fill="none" xmlns="http://www.w3.org/2000/svg">
<g clip-path="url(#clip0_55_6577)">
<path d="M4.21879 0.124939C3.93754 0.179626 3.37504 0.398376 2.96879 0.593689C1.92192 1.10931 1.10942 1.92963 0.593791 2.96869C-0.0546469 4.289 4.0569e-05 1.52338 4.0569e-05 32.4999C4.0569e-05 63.4765 -0.0546469 60.7109 0.593791 62.0312C1.10942 63.0781 1.92192 63.8906 2.96879 64.4062C4.18754 64.9999 4.11723 64.9999 9.90629 64.9999H15V66.3437C15 67.9921 15.1016 68.5312 15.5938 69.5312C16.1094 70.5781 16.9219 71.3906 17.9688 71.9062C19.1875 72.4999 19.125 72.4999 24.8907 72.4999H29.9844L30.0157 74.0781C30.0469 75.6015 30.0547 75.6874 30.2813 76.3359C30.7657 77.6952 31.7266 78.789 33.0079 79.4218C34.2735 80.0468 32.4454 79.9999 54.9688 79.9999C69.1094 79.9999 75.2657 79.9765 75.5938 79.914C77.6485 79.539 79.461 77.7812 79.8829 75.7421C80.0547 74.9062 80.0547 30.3437 79.8829 29.9687C79.7266 29.6406 65.2579 15.1874 64.9766 15.0781C64.836 15.0312 63.4766 14.9999 61.1485 14.9999H57.5391L53.8672 11.3359C51.8516 9.31244 50.0938 7.62494 49.9766 7.58588C49.836 7.53119 48.4844 7.49994 46.1485 7.49994H42.5391L38.9063 3.85931C36.8516 1.80463 35.1641 0.171814 35.0235 0.109314C34.6485 -0.0547485 4.98442 -0.0391235 4.21879 0.124939ZM32.5 4.99994V7.49994H26.1563C18.9844 7.49994 19.2032 7.48431 17.9766 8.09369C16.711 8.71869 15.75 9.82806 15.25 11.2421L15.0391 11.8359L15.0157 18.414L14.9922 24.9999H11.75C8.64067 24.9999 8.50004 25.0078 8.19535 25.1562C7.39067 25.5703 7.29692 26.6874 8.03129 27.2499L8.30473 27.4609L11.6563 27.4843L15 27.5078V29.9999V32.4999H11.7579C8.64067 32.4999 8.50004 32.5078 8.19535 32.6562C7.39067 33.0703 7.29692 34.1874 8.03129 34.7499L8.30473 34.9609L11.6563 34.9843L15 35.0078V37.4999V39.9999H11.7579C8.64067 39.9999 8.50004 40.0078 8.19535 40.1562C7.39067 40.5703 7.29692 41.6874 8.03129 42.2499L8.30473 42.4609L11.6563 42.4843L15 42.5078V44.9999V47.4999H11.7422C8.50785 47.4999 8.4766 47.5078 8.1641 47.6796C7.82817 47.8671 7.50004 48.3906 7.50004 48.7499C7.50004 49.1093 7.82817 49.6328 8.1641 49.8203C8.4766 49.9921 8.50785 49.9999 11.7422 49.9999H15V52.4999V54.9999H11.7579C8.64067 54.9999 8.50004 55.0078 8.19535 55.1562C7.39067 55.5703 7.29692 56.6874 8.03129 57.2499L8.30473 57.4609L11.6563 57.4843L15 57.5077V60.0077V62.5077L9.82817 62.4843L4.64848 62.4609L4.17973 62.2343C3.58598 61.9374 3.06254 61.414 2.76567 60.8202L2.5391 60.3515L2.51567 32.7343C2.50004 13.0546 2.52348 4.99994 2.58598 4.70306C2.76567 3.82025 3.76567 2.78119 4.63285 2.59369C4.82817 2.54681 10.3438 2.51556 18.7344 2.50775L32.5 2.49994V4.99994ZM37.0313 5.50775L39.0235 7.49994H37.0079H35V5.50775C35 4.414 35.0079 3.51556 35.0235 3.51556C35.0313 3.51556 35.9375 4.414 37.0313 5.50775ZM47.5 12.4999V14.9999H41.1563C34.0079 14.9999 34.2032 14.9921 33.0079 15.5781C31.7344 16.2109 30.7657 17.2968 30.2813 18.664L30.0391 19.3359L30.0157 24.664L29.9922 29.9999H26.8985C23.9219 29.9999 23.7891 30.0078 23.4688 30.164C23.0157 30.3749 22.8125 30.7265 22.8125 31.2578C22.8125 31.7578 22.9844 32.0546 23.4141 32.3203C23.711 32.4999 23.711 32.4999 26.8594 32.4999H30V34.9999V37.4999H26.8985C23.9219 37.4999 23.7891 37.5078 23.4688 37.664C23.0157 37.8749 22.8125 38.2265 22.8125 38.7578C22.8125 39.2578 22.9844 39.5546 23.4141 39.8203C23.711 39.9999 23.711 39.9999 26.8594 39.9999H30V42.4999V44.9999H26.8985C23.9219 44.9999 23.7891 45.0078 23.4688 45.164C23.0157 45.3749 22.8125 45.7265 22.8125 46.2578C22.8125 46.7578 22.9844 47.0546 23.4141 47.3203C23.711 47.4999 23.711 47.4999 26.8594 47.4999H30V49.9999V52.4999H26.8985C23.9219 52.4999 23.7891 52.5078 23.4688 52.664C23.0157 52.8749 22.8125 53.2265 22.8125 53.7578C22.8125 54.2578 22.9844 54.5546 23.4141 54.8203C23.711 54.9999 23.711 54.9999 26.8594 54.9999H30V57.4999V59.9999H26.8985C23.9219 59.9999 23.7891 60.0077 23.4688 60.164C23.0235 60.3749 22.8125 60.7265 22.8125 61.2499C22.8125 61.7734 23.0235 62.1249 23.4688 62.3359C23.7891 62.4921 23.9219 62.4999 26.8985 62.4999H30V66.2499V70.0077L24.8282 69.9843L19.6485 69.9609L19.1797 69.7343C18.586 69.4374 18.0625 68.914 17.7657 68.3202L17.5391 67.8515L17.5157 40.2343C17.5079 20.5703 17.5235 12.4999 17.586 12.2031C17.7657 11.3203 18.7657 10.2812 19.6329 10.0937C19.8282 10.0468 25.3438 10.0156 33.7344 10.0078L47.5 9.99994V12.4999ZM52.0313 13.0078L54.0235 14.9999H52.0079H50V13.0078C50 11.914 50.0079 11.0156 50.0235 11.0156C50.0313 11.0156 50.9375 11.914 52.0313 13.0078ZM62.5235 22.9843C62.5469 29.0859 62.5235 28.7578 63.0938 29.9218C63.625 30.9843 64.7266 31.8906 66.0157 32.3124C66.4141 32.4453 66.875 32.4609 71.9766 32.4843L77.5 32.5078L77.4844 53.9296L77.461 75.3515L77.2344 75.8202C76.9375 76.414 76.4141 76.9374 75.8204 77.2343L75.3516 77.4609H55H34.6485L34.1797 77.2343C33.586 76.9374 33.0625 76.414 32.7657 75.8202L32.5391 75.3515V47.4999V19.6484L32.711 19.2734C33.0704 18.4921 33.7032 17.914 34.4922 17.6406C34.8594 17.5156 35.7891 17.5078 48.6875 17.4999H62.4922L62.5235 22.9843ZM75.5704 29.9843C75.0625 29.9921 72.875 29.9921 70.7032 29.9843C67.4454 29.9609 66.7188 29.9374 66.5235 29.8437C66.0469 29.6171 65.6485 29.2968 65.4454 28.9921C65.0079 28.3359 65 28.1953 65 23.1249V18.4765L70.7422 24.2187L76.4844 29.9609L75.5704 29.9843Z" fill="#273895"/>
<path d="M38.1172 37.6797C37.7109 37.9531 37.5 38.3203 37.5 38.75C37.5 39.1797 37.7109 39.5469 38.1172 39.8203L38.3828 40L55.0469 39.9844L71.7109 39.9609L71.9297 39.7969C72.2188 39.5859 72.5 39.0859 72.5 38.7891C72.5 38.4688 72.2031 37.8984 71.9297 37.7031L71.7109 37.5391L55.0469 37.5156L38.3828 37.5L38.1172 37.6797Z" fill="#273895"/>
<path d="M38.1172 45.1797C37.7109 45.4531 37.5 45.8203 37.5 46.25C37.5 46.6797 37.7109 47.0469 38.1172 47.3203L38.3828 47.5L55.0469 47.4844L71.7109 47.4609L71.9297 47.2969C72.2188 47.0859 72.5 46.5859 72.5 46.2891C72.5 45.9688 72.2031 45.3984 71.9297 45.2031L71.7109 45.0391L55.0469 45.0156L38.3828 45L38.1172 45.1797Z" fill="#273895"/>
<path d="M38.1172 52.6797C37.7109 52.9531 37.5 53.3203 37.5 53.75C37.5 54.1797 37.7109 54.5469 38.1172 54.8203L38.3828 55L55.0469 54.9844L71.7109 54.9609L71.9297 54.7969C72.2266 54.5703 72.5 54.0781 72.5 53.75C72.5 53.4219 72.2266 52.9297 71.9297 52.7031L71.7109 52.5391L55.0469 52.5156L38.3828 52.5L38.1172 52.6797Z" fill="#273895"/>
<path d="M38.1172 60.1797C37.7109 60.4531 37.5 60.8203 37.5 61.25C37.5 61.6797 37.7109 62.0469 38.1172 62.3203L38.3828 62.5L55.0469 62.4844L71.7109 62.4609L71.9297 62.2969C72.1875 62.1094 72.5 61.5391 72.5 61.25C72.5 60.9609 72.1875 60.3906 71.9297 60.2031L71.7109 60.0391L55.0469 60.0156L38.3828 60L38.1172 60.1797Z" fill="#273895"/>
<path d="M38.1172 67.6797C37.7109 67.9531 37.5 68.3203 37.5 68.75C37.5 69.1797 37.7109 69.5469 38.1172 69.8203L38.3828 70L55.0469 69.9844L71.7109 69.9609L71.9297 69.7969C72.1875 69.6094 72.5 69.0391 72.5 68.75C72.5 68.4609 72.1875 67.8906 71.9297 67.7031L71.7109 67.5391L55.0469 67.5156L38.3828 67.5L38.1172 67.6797Z" fill="#273895"/>
</g>
<defs>
<clipPath id="clip0_55_6577">
<rect width="80" height="80" fill="white"/>
</clipPath>
</defs>
</svg>
