<svg width="73" height="81" viewBox="0 0 73 81" fill="none" xmlns="http://www.w3.org/2000/svg">
<path d="M31.8253 1.08333C31.4554 1.46666 31.44 1.55 31.44 4.06667V6.63333L30.4073 7C29.8217 7.2 28.6811 7.71666 27.8488 8.13333L26.3384 8.88333L24.6738 7.11666C22.2848 4.56667 22.5931 4.48333 18.9248 8.46666C15.2412 12.4333 15.3183 12.1 17.6764 14.6833L19.3102 16.4833L18.6166 18.1167C18.2313 19.0167 17.7535 20.25 17.5685 20.8667L17.2294 22H14.8559C12.5285 22 12.4515 22.0167 12.097 22.4167L11.7117 22.8167V27.3333V31.85L12.097 32.25C12.4515 32.65 12.5285 32.6667 14.8559 32.6667H17.2294L17.5685 33.7833C17.7535 34.4167 18.2313 35.65 18.6166 36.55L19.3102 38.1833L17.6764 39.9833C15.3183 42.5667 15.2412 42.2333 18.9248 46.2C22.5931 50.1833 22.2848 50.1 24.6738 47.55L26.3384 45.7833L27.8488 46.5333C28.6811 46.95 29.8217 47.4667 30.4073 47.6667L31.44 48.0333V50.6C31.44 53.1167 31.4554 53.2 31.8253 53.5833L32.1952 54H36.3721H40.5489L40.9188 53.5833C41.2887 53.2 41.3042 53.1167 41.3042 50.6V48.0333L42.3522 47.6667C42.9225 47.4667 44.063 46.95 44.8953 46.5333L46.4058 45.7833L48.0703 47.55C50.4593 50.1 50.1511 50.1833 53.8193 46.2C57.503 42.2333 57.4259 42.5667 55.0677 39.9833L53.434 38.1833L54.1276 36.55C54.5129 35.65 54.9907 34.4167 55.1756 33.7833L55.5147 32.6667H57.8883C60.2156 32.6667 60.2927 32.65 60.6472 32.25L61.0325 31.85V27.3333V22.8167L60.6472 22.4167C60.2927 22.0167 60.2156 22 57.8883 22H55.5147L55.1756 20.8667C54.9907 20.25 54.5129 19.0167 54.1276 18.1167L53.434 16.4833L55.0677 14.6833C57.4259 12.1 57.503 12.4333 53.8193 8.46666C50.1511 4.48333 50.4593 4.56667 48.0703 7.11666L46.4058 8.88333L44.8953 8.13333C44.063 7.71666 42.9225 7.2 42.3522 7L41.3042 6.63333V4.06667C41.3042 1.55 41.2887 1.46666 40.9188 1.08333L40.5489 0.666664H36.3721H32.1952L31.8253 1.08333ZM38.8381 5.73333C38.8381 8.73333 38.8689 8.76666 40.9188 9.35C41.7974 9.58333 43.092 10.15 44.4175 10.8833C45.9126 11.7 46.637 12.0167 46.8836 11.9333C47.0839 11.8833 47.9316 11.1 48.7793 10.1667L50.3206 8.5L52.0468 10.3667L53.7885 12.2333L52.1701 14.0167C51.1991 15.0667 50.5518 15.9167 50.5518 16.1167C50.5518 16.3 51.0296 17.45 51.5999 18.6833C52.278 20.1167 52.7867 21.4667 53.0024 22.4167C53.5419 24.6333 53.5727 24.6667 56.347 24.6667H58.5664V27.3333V30H56.347C53.5881 30 53.5419 30.0333 53.0333 32.1667C52.8329 33.0333 52.278 34.5 51.5999 35.95C50.8292 37.6333 50.5364 38.4167 50.598 38.7C50.6597 38.9167 51.3841 39.8333 52.2472 40.75L53.7885 42.4167L52.0623 44.2833L50.336 46.1667L48.6869 44.4167C47.7159 43.3667 46.9298 42.6667 46.7449 42.6667C46.5753 42.6667 45.5118 43.1833 44.3713 43.8C43.0458 44.5333 41.7974 45.0833 40.9188 45.3167C38.8689 45.9 38.8381 45.9333 38.8381 48.9333V51.3333H36.3721H33.906V48.9333C33.906 45.9667 33.8752 45.9 31.9024 45.35C31.1471 45.1333 29.6675 44.4833 28.4037 43.8C26.847 42.9667 26.1072 42.65 25.8606 42.7167C25.6602 42.7833 24.8125 43.5667 23.9648 44.5L22.4235 46.1667L20.6973 44.3L18.9557 42.4333L20.574 40.65C21.545 39.6 22.1923 38.75 22.1923 38.55C22.1923 38.3667 21.7145 37.2167 21.1443 35.9833C20.4661 34.55 19.9575 33.2 19.7417 32.25C19.2023 30.0333 19.1714 30 16.3971 30H14.1777V27.3333V24.6667H16.3971C19.156 24.6667 19.2023 24.6333 19.7109 22.5C19.9113 21.6333 20.4661 20.1667 21.1443 18.7167C21.9149 17.0333 22.2078 16.25 22.1461 15.9667C22.0845 15.75 21.3601 14.8333 20.4969 13.9167L18.9557 12.25L20.6819 10.3833L22.4081 8.5L24.0573 10.25C25.0283 11.3 25.8143 12 25.9993 12C26.1688 12 27.2323 11.4833 28.3729 10.8667C29.6983 10.1333 30.9468 9.58333 31.8253 9.35C33.8752 8.76666 33.906 8.73333 33.906 5.73333V3.33333H36.3721H38.8381V5.73333Z" fill="#273895"/>
<path d="M34.06 11.5166C30.7154 12.1499 27.8178 13.8499 25.5676 16.4833C23.8259 18.4999 22.7008 20.7166 22.0226 23.5C21.5603 25.3333 21.514 29.1166 21.9302 30.9C22.6546 34 23.903 36.3833 26.0454 38.6666C28.0953 40.8666 30.2685 42.1833 33.0736 42.95C34.7227 43.4 38.2214 43.35 39.9168 42.85C42.799 42.0166 44.6794 40.85 46.7755 38.5833C48.8716 36.3166 49.9505 34.3 50.7366 31.1666C51.2298 29.2 51.2298 25.5666 50.7366 23.5499C50.0122 20.5499 48.7946 18.2166 46.7909 16.0666C44.8181 13.9333 42.6295 12.5666 39.9322 11.8166C38.5605 11.4333 35.3547 11.2666 34.06 11.5166ZM38.2677 14.1833C44.8797 15.2833 49.519 22.0499 48.5634 29.1666C47.2687 38.6666 37.4816 43.6833 29.9602 38.6833C23.5485 34.4166 22.1151 25.1166 26.9085 18.8166C29.6057 15.2499 33.9829 13.4666 38.2677 14.1833Z" fill="#273895"/>
<path d="M35.5238 18.4166C35.1539 18.7999 35.1384 18.8833 35.1384 21.2499C35.1384 23.3333 35.1076 23.6666 34.8918 23.6666C34.4757 23.6666 33.0577 25.3499 32.8574 26.0999C32.4258 27.6666 32.7341 28.9166 33.8284 30.0833C35.4005 31.7833 37.3579 31.7833 38.9608 30.0499C39.3924 29.5833 39.7623 29.0666 39.7623 28.9333C39.7623 28.6999 40.1322 28.6666 42.6136 28.6666C45.4496 28.6666 45.4804 28.6666 45.8503 28.2499C46.3589 27.7166 46.3589 26.9499 45.8503 26.4166C45.4804 25.9999 45.4496 25.9999 42.6136 25.9999C40.1322 25.9999 39.7623 25.9666 39.7623 25.7333C39.7623 25.3999 38.1593 23.6666 37.8511 23.6666C37.6353 23.6666 37.6045 23.3333 37.6045 21.2499C37.6045 18.8833 37.5891 18.7999 37.2192 18.4166C36.988 18.1499 36.6643 17.9999 36.3715 17.9999C36.0786 17.9999 35.7549 18.1499 35.5238 18.4166ZM37.2192 26.4166C37.4658 26.6666 37.6045 27.0166 37.6045 27.3333C37.6045 27.6499 37.4658 27.9999 37.2192 28.2499C36.4639 29.0833 35.1384 28.4999 35.1384 27.3333C35.1384 26.6499 35.7395 25.9999 36.3715 25.9999C36.6643 25.9999 36.988 26.1499 37.2192 26.4166Z" fill="#273895"/>
<path d="M0.999699 57.0666L0.61438 57.4833V68.6666V79.85L0.999699 80.2666L1.3696 80.6666L23.9185 80.6333C45.82 80.5833 46.4827 80.5666 47.1609 80.2666C47.5462 80.0833 52.8019 77.2 58.8592 73.85C65.9953 69.8833 70.0951 67.5333 70.5266 67.1166C70.8965 66.7666 71.3897 66.0666 71.6209 65.5333C71.9908 64.7333 72.0525 64.3666 72.0525 63.25C72.0525 62.0333 71.9908 61.8 71.4206 60.4833C70.6191 58.6833 70.0334 57.9666 68.8466 57.35C67.5982 56.7 66.7043 56.5666 65.5637 56.8833C65.0243 57.0333 61.0169 59.1333 55.9153 61.9166L47.1609 66.6833L47.2842 66.1333C47.5 65.05 47.3921 63.2833 47.053 62.4833C46.5906 61.3833 45.7275 60.4166 44.7257 59.8833L43.8471 59.4166L38.314 59.3666L32.7654 59.3166L32.0256 58.5666C31.6094 58.15 30.808 57.5666 30.2377 57.2833L29.205 56.75L15.2873 56.7L1.38502 56.65L0.999699 57.0666ZM14.1776 68.6666V78H8.62901H3.08042V68.6666V59.3333H8.62901H14.1776V68.6666ZM28.8814 59.5333C29.3283 59.6666 29.8061 60.05 30.4997 60.8166L31.4861 61.9166L37.4663 62C43.1998 62.0833 43.4618 62.1 43.8626 62.4333C44.664 63.0833 44.926 63.6166 44.926 64.65C44.926 65.45 44.849 65.7166 44.4791 66.2333C43.693 67.35 43.8163 67.3333 35.7554 67.3333H28.496L28.1261 67.75C27.8795 68 27.7408 68.35 27.7408 68.6666C27.7408 68.9833 27.8795 69.3333 28.1261 69.5833L28.496 70H37.5433H46.5906L56.1619 64.7666C61.4177 61.8833 65.949 59.4833 66.2265 59.4166C66.9046 59.2666 67.8294 59.5833 68.3072 60.1166C68.8312 60.7166 69.6635 62.6166 69.6635 63.2166C69.6635 63.8833 69.309 64.6833 68.8004 65.1833C68.5538 65.4166 63.3597 68.3833 57.2562 71.7666L46.1591 77.9166L31.4091 77.9666L16.6436 78V68.6666V59.3333H22.4388C26.4924 59.3333 28.4344 59.4 28.8814 59.5333Z" fill="#273895"/>
</svg>
