<svg width="80" height="80" viewBox="0 0 80 80" fill="none" xmlns="http://www.w3.org/2000/svg">
<path d="M70.8333 70.8333H9.16667C5.48333 70.8333 2.5 67.85 2.5 64.1666V14.1666H77.5V64.1666C77.5 67.85 74.5167 70.8333 70.8333 70.8333Z" fill="#F3F3F1"/>
<path d="M77.5 14.1667H2.5V9.16667C2.5 5.48334 5.48333 2.5 9.16667 2.5H70.8333C74.5167 2.5 77.5 5.48334 77.5 9.16667V14.1667Z" fill="#273895"/>
<path d="M58.3333 77.5C68.9188 77.5 77.5 68.9188 77.5 58.3333C77.5 47.7478 68.9188 39.1666 58.3333 39.1666C47.7478 39.1666 39.1666 47.7478 39.1666 58.3333C39.1666 68.9188 47.7478 77.5 58.3333 77.5Z" fill="#273895"/>
<path d="M64.1666 25.8334H15.8333V40.8334H64.1999L64.1666 25.8334Z" fill="#273895"/>
<path d="M16.6667 2.5H9.16667C5.48333 2.5 2.5 5.48334 2.5 9.16667V14.1667H10V9.16667C10 5.48334 12.9833 2.5 16.6667 2.5Z" fill="#273895"/>
<path d="M46.6666 58.3333C46.6666 49.0333 53.2933 41.2833 62.0833 39.54C60.87 39.3 59.6166 39.1666 58.3333 39.1666C47.7466 39.1666 39.1666 47.7466 39.1666 58.3333C39.1666 68.92 47.7466 77.5 58.3333 77.5C59.6166 77.5 60.87 77.37 62.0833 77.1266C53.2933 75.3833 46.6666 67.6333 46.6666 58.3333Z" fill="#273895"/>
<path d="M15.8333 25.8334H23.3333V40.8334H15.8333V25.8334Z" fill="#273895"/>
<path d="M10 64.1666V14.1666H2.5V64.1666C2.5 67.85 5.48333 70.8333 9.16667 70.8333H16.6667C12.9833 70.8333 10 67.85 10 64.1666Z" fill="#D5DBE1"/>
<path d="M58.3333 80C46.3866 80 36.6666 70.28 36.6666 58.3333C36.6666 46.3866 46.3866 36.6666 58.3333 36.6666C70.28 36.6666 80 46.3866 80 58.3333C80 70.28 70.28 80 58.3333 80ZM58.3333 41.6666C49.1433 41.6666 41.6666 49.1433 41.6666 58.3333C41.6666 67.5233 49.1433 75 58.3333 75C67.5233 75 75 67.5233 75 58.3333C75 49.1433 67.5233 41.6666 58.3333 41.6666Z" fill="black"/>
<path d="M55 67.5C54.3367 67.5 53.7 67.2367 53.2333 66.7667L46.5667 60.1L50.1033 56.5634L54.88 61.34L64.7867 50.02L68.55 53.3134L56.8833 66.6467C56.4267 67.1667 55.7767 67.4767 55.0833 67.5C55.0567 67.5 55.0267 67.5 55 67.5Z" fill="white"/>
<path d="M35.0334 43.3332H15.8334C14.4534 43.3332 13.3334 42.2132 13.3334 40.8332V25.8333C13.3334 24.4533 14.4534 23.3333 15.8334 23.3333H64.1667C65.5467 23.3333 66.6667 24.4533 66.6667 25.8333V29.7666H61.6667V28.3333H18.3334V38.3332H35.0334V43.3332Z" fill="black"/>
<path d="M13.5 48.3H32.6667V53.3H13.5V48.3Z" fill="black"/>
<path d="M13.5 58.3H31.8V63.3H13.5V58.3Z" fill="black"/>
<path d="M31.9667 73.3333H9.16667C4.11 73.3333 0 69.2233 0 64.1667V9.16667C0 4.11 4.11 0 9.16667 0H70.8333C75.89 0 80 4.11 80 9.16667V36.4H75V9.16667C75 6.87 73.13 5 70.8333 5H9.16667C6.87 5 5 6.87 5 9.16667V64.1667C5 66.4633 6.87 68.3333 9.16667 68.3333H31.9667V73.3333Z" fill="black"/>
<path d="M2.5 11.6666H77.5V16.6666H2.5V11.6666Z" fill="black"/>
</svg>
