<svg width="72" height="75" viewBox="0 0 72 75" fill="none" xmlns="http://www.w3.org/2000/svg">
<path d="M70.8267 44.4573C71.0423 42.878 71.1562 41.2672 71.1562 39.6295C71.1562 29.781 67.1071 20.7729 60.5167 14.3122C60.4748 14.2669 60.4315 14.2243 60.3855 14.1845C55.3703 9.31824 48.9048 5.92003 41.6394 4.72939C41.053 2.09953 38.7095 0.128174 35.9149 0.128174C33.1175 0.128174 30.7719 2.09953 30.1848 4.7287C26.3121 5.3611 22.5987 6.63345 19.1298 8.5231C18.2804 8.9859 17.9659 10.0523 18.4274 10.9037C18.7453 11.4894 19.3468 11.8217 19.9682 11.8217C20.2504 11.8217 20.5367 11.7531 20.8025 11.6082C23.8429 9.95201 27.0908 8.82179 30.478 8.23814C31.3542 10.3873 33.4608 11.9062 35.9149 11.9062C38.3662 11.9062 40.4701 10.388 41.3462 8.23883C46.1891 9.07585 50.631 11.0046 54.4316 13.7519H47.7416C44.1367 13.7519 41.2041 16.6942 41.2041 20.3107C41.2041 23.9246 44.1367 26.8648 47.7416 26.8648C49.4129 26.8648 50.7718 28.2326 50.7718 29.9128C50.7718 31.5937 49.4129 32.9608 47.7416 32.9608H46.7288C43.1267 32.9608 40.1961 35.901 40.1961 39.5155C40.1961 43.1321 43.1267 46.0744 46.7288 46.0744H67.0007C64.0241 60.5626 51.2168 71.4892 35.9149 71.4892C28.944 71.4892 22.4916 69.2205 17.2498 65.3828H23.9583C27.5632 65.3828 30.4958 62.4413 30.4958 58.824C30.4958 55.2102 27.5632 52.27 23.9583 52.27C22.287 52.27 20.9281 50.9029 20.9281 49.222C20.9281 47.5438 22.287 46.1787 23.9583 46.1787H24.9663C28.5712 46.1787 31.5038 43.2365 31.5038 39.6199C31.5038 36.0027 28.5712 33.0604 24.9663 33.0604H4.83934C5.82124 28.3287 7.87157 23.8957 10.9093 20.0018C11.5046 19.2382 11.37 18.1348 10.6078 17.5374C9.84636 16.94 8.74567 17.0753 8.14966 17.8395C3.25525 24.1148 0.667969 31.65 0.667969 39.6295C0.667969 49.4149 4.64914 58.285 11.0706 64.6948C11.1723 64.8267 11.2911 64.9434 11.4256 65.0423C17.7716 71.2029 26.4089 75 35.9149 75C53.6372 75 68.3431 61.802 70.7944 44.6846C70.8102 44.6104 70.8205 44.5349 70.8267 44.4573ZM4.31406 36.5719H24.9663C26.6396 36.5719 28.0013 37.939 28.0013 39.6199C28.0013 41.3001 26.6396 42.6679 24.9663 42.6679H23.9583C20.3562 42.6679 17.4256 45.6075 17.4256 49.222C17.4256 52.8385 20.3562 55.7808 23.9583 55.7808C25.6317 55.7808 26.9933 57.1458 26.9933 58.824C26.9933 60.5042 25.6317 61.872 23.9583 61.872H13.2109C7.62094 56.1262 4.17055 48.2751 4.17055 39.6295C4.17055 38.6009 4.21999 37.5813 4.31406 36.5719ZM35.9149 8.3947C34.6075 8.3947 33.5446 7.32697 33.5446 6.01479C33.5446 4.70467 34.6075 3.63899 35.9149 3.63899C37.2188 3.63899 38.2797 4.70467 38.2797 6.01479C38.2797 7.32697 37.2188 8.3947 35.9149 8.3947ZM46.7288 42.5629C45.0575 42.5629 43.6987 41.1958 43.6987 39.5148C43.6987 37.8374 45.0575 36.4716 46.7288 36.4716H47.7416C51.3438 36.4716 54.2744 33.5294 54.2744 29.9128C54.2744 26.2962 51.3438 23.354 47.7416 23.354C46.0683 23.354 44.7067 21.9889 44.7067 20.3107C44.7067 18.6298 46.0683 17.2627 47.7416 17.2627H58.5096C64.1861 23.0477 67.6537 30.9785 67.6537 39.6295C67.6537 40.6183 67.6063 41.5968 67.5177 42.5629H46.7288Z" fill="#273895"/>
<path d="M13.9602 15.9871C14.2966 15.9871 14.6372 15.8903 14.9379 15.687L14.9675 15.6671C15.7695 15.1253 15.9809 14.0343 15.4399 13.2302C14.8995 12.4261 13.8112 12.214 13.0091 12.7564L12.9796 12.7763C12.1776 13.3181 11.9661 14.4099 12.5065 15.2132C12.845 15.7159 13.3971 15.9871 13.9602 15.9871Z" fill="#273895"/>
</svg>
