<svg width="80" height="80" viewBox="0 0 80 80" fill="none" xmlns="http://www.w3.org/2000/svg">
<g clip-path="url(#clip0_55_6547)">
<path d="M60.5839 11.3508C61.4467 11.3508 62.1464 10.6511 62.1464 9.78833C62.1464 8.92552 61.4467 8.22583 60.5839 8.22583H60.575C59.7122 8.22583 59.0168 8.92552 59.0168 9.78833C59.0168 10.6511 59.7211 11.3508 60.5839 11.3508Z" fill="#273895"/>
<path d="M69.0169 11.3508C69.8797 11.3508 70.5794 10.6511 70.5794 9.78833C70.5794 8.92552 69.8797 8.22583 69.0169 8.22583H69.008C68.1451 8.22583 67.4498 8.92552 67.4498 9.78833C67.4498 10.6511 68.1541 11.3508 69.0169 11.3508Z" fill="#273895"/>
<path d="M52.1511 11.3508C53.0139 11.3508 53.7136 10.6511 53.7136 9.78833C53.7136 8.92552 53.0139 8.22583 52.1511 8.22583H52.1422C51.2794 8.22583 50.5841 8.92552 50.5841 9.78833C50.5841 10.6511 51.2882 11.3508 52.1511 11.3508Z" fill="#273895"/>
<path d="M10.9786 11.3508H34.4571C35.32 11.3508 36.0196 10.6511 36.0196 9.78833C36.0196 8.92552 35.32 8.22583 34.4571 8.22583H10.9786C10.1157 8.22583 9.41614 8.92552 9.41614 9.78833C9.41614 10.6511 10.1157 11.3508 10.9786 11.3508Z" fill="#273895"/>
<path d="M74.9873 0.00256348H5.01281C2.24875 0.00256348 0 2.25116 0 5.01522V62.8719C0 65.6358 2.24875 67.8846 5.01281 67.8846H17.5181C18.5153 69.3943 19.6727 70.8126 20.9819 72.1218C26.0625 77.2024 32.8166 80.0004 40 80.0004C47.1836 80.0004 53.9377 77.2024 59.0183 72.1218C60.3355 70.8044 61.487 69.3833 62.4733 67.8846H74.9873C77.7513 67.8846 80 65.6358 80 62.8719V5.01522C80 2.25116 77.7513 0.00256348 74.9873 0.00256348ZM5.01281 3.12756H74.9873C76.0281 3.12756 76.875 3.97444 76.875 5.01522V16.4565H3.125V5.01522C3.125 3.97444 3.97188 3.12756 5.01281 3.12756ZM74.9873 64.7596H64.2384C69.0383 54.7538 67.2995 42.3713 59.0183 34.0899C54.808 29.8798 49.4706 27.2382 43.5831 26.451C37.885 25.6894 31.9911 26.7941 26.9864 29.5623C26.2312 29.9801 25.9577 30.9307 26.3753 31.6858C26.793 32.441 27.7439 32.7144 28.4987 32.2969C37.7136 27.1999 49.3548 28.846 56.8084 36.2996C66.0755 45.5666 66.0755 60.6452 56.8084 69.9119C52.3181 74.4023 46.3488 76.8752 40 76.8752C33.6512 76.8752 27.6819 74.4023 23.1916 69.9119C15.7391 62.4596 14.0931 50.8201 19.1887 41.6069C19.6064 40.8518 19.3328 39.9012 18.5777 39.4833C17.8228 39.0657 16.8719 39.3393 16.4542 40.0944C13.6861 45.099 12.5812 50.9924 13.343 56.689C13.7228 59.5288 14.5355 62.2402 15.7466 64.7594H5.01281C3.97188 64.7594 3.125 63.9126 3.125 62.8718V19.5812H76.875V62.8718C76.875 63.9127 76.0281 64.7596 74.9873 64.7596Z" fill="#273895"/>
<path d="M39.9978 62.1076C40.8608 62.1076 41.5603 61.4079 41.5603 60.5451V56.8159C41.5603 55.9531 40.8606 55.2534 39.9978 55.2534C39.135 55.2534 38.4353 55.9531 38.4353 56.8159V60.5451C38.4353 61.4081 39.1348 62.1076 39.9978 62.1076Z" fill="#273895"/>
<path d="M39.9978 71.0143C47.38 71.0143 53.3858 65.0083 53.3858 57.6261V51.6513C53.3858 49.6297 51.9322 47.9422 50.0155 47.5766V43.4797C50.0155 38.8671 46.2627 35.1143 41.6499 35.1143H38.3458C33.7331 35.1143 29.9803 38.8671 29.9803 43.4797V47.5772C28.0633 47.9441 26.6099 49.631 26.6099 51.6513V57.6261C26.6097 65.0085 32.6156 71.0143 39.9978 71.0143ZM33.1053 43.4797C33.1053 40.5902 35.4561 38.2393 38.3458 38.2393H41.6499C44.5395 38.2393 46.8905 40.5902 46.8905 43.4797V47.5022H33.1053V43.4797ZM29.7347 51.6513C29.7347 51.0961 30.2058 50.6272 30.7633 50.6272H49.2367C49.7919 50.6272 50.2608 51.0961 50.2608 51.6513V57.6261C50.2608 63.2852 45.6569 67.8893 39.9978 67.8893C34.3388 67.8893 29.7347 63.2852 29.7347 57.6261V51.6513Z" fill="#273895"/>
<path d="M20.9819 34.0884C20.3718 34.6986 20.3718 35.6879 20.9819 36.2982C21.2871 36.6032 21.6869 36.7559 22.0868 36.7559C22.4866 36.7559 22.8866 36.6032 23.1916 36.2982L23.196 36.2939C23.8061 35.6837 23.8039 34.6965 23.1938 34.0864C22.5836 33.4762 21.5922 33.4782 20.9819 34.0884Z" fill="#273895"/>
</g>
<defs>
<clipPath id="clip0_55_6547">
<rect width="80" height="80" fill="white"/>
</clipPath>
</defs>
</svg>
