<svg width="80" height="80" viewBox="0 0 80 80" fill="none" xmlns="http://www.w3.org/2000/svg">
<path d="M53.6388 59.5286C46.9597 64.7198 38.554 67.1688 30.1335 66.3769C21.713 65.5851 13.9106 61.6119 8.31525 55.2665C2.71984 48.921 -0.247924 40.6804 0.0162345 32.2226C0.280393 23.7647 3.75661 15.7256 9.73708 9.74206C15.7175 3.75853 23.7526 0.280536 32.2061 0.0162428C40.6596 -0.248051 48.896 2.72123 55.2382 8.3195C61.5804 13.9178 65.5515 21.7241 66.343 30.1489C67.1344 38.5738 64.6867 46.9837 59.4982 53.6663L78.7745 72.8804C80.4063 74.507 80.4088 77.1489 78.78 78.7785C77.1512 80.4082 74.509 80.407 72.8817 78.7758L53.6804 59.5286H53.6388ZM33.2766 58.1982C36.5509 58.1982 39.7931 57.5529 42.8182 56.2992C45.8432 55.0456 48.5919 53.2081 50.9071 50.8916C53.2224 48.5752 55.059 45.8251 56.312 42.7985C57.565 39.7719 58.2099 36.5281 58.2099 33.2521C58.2099 29.9761 57.565 26.7322 56.312 23.7056C55.059 20.679 53.2224 17.929 50.9071 15.6126C48.5919 13.2961 45.8432 11.4586 42.8182 10.2049C39.7931 8.95127 36.5509 8.30602 33.2766 8.30602C26.6639 8.30602 20.322 10.9343 15.6461 15.6126C10.9702 20.2908 8.34333 26.636 8.34333 33.2521C8.34333 39.8682 10.9702 46.2133 15.6461 50.8916C20.322 55.5699 26.6639 58.1982 33.2766 58.1982Z" fill="#273895"/>
</svg>
