<svg width="75" height="80" viewBox="0 0 75 80" fill="none" xmlns="http://www.w3.org/2000/svg">
<g clip-path="url(#clip0_12_6091)">
<g clip-path="url(#clip1_12_6091)">
<path d="M4.22004 6.67713C3.41087 6.98963 2.83289 7.50525 2.39941 8.30213L1.99482 9.0365L1.95148 21.1927C1.92258 33.3177 1.92258 33.3334 2.22602 34.1146C2.55835 34.9584 3.28083 35.7396 4.0322 36.0834C4.42233 36.2552 5.72278 36.3021 10.3755 36.3021C16.0397 36.3021 16.242 36.2865 16.5165 35.9896C16.8778 35.599 16.8922 34.8802 16.531 34.4115L16.2564 34.0365L10.4478 33.9584L4.63907 33.8802L4.36453 33.5052C4.10444 33.1615 4.08999 32.7552 4.08999 23.474V13.8021H18.6117H33.1334V16.2865C33.1334 18.849 33.2634 19.6303 33.7114 19.8959C34.1448 20.1459 34.6939 20.0834 35.0118 19.7396C35.3008 19.4271 35.3153 19.2709 35.2719 14.1146L35.2286 8.83338L34.7951 8.14588C34.2893 7.38025 33.6102 6.849 32.8588 6.61463C32.0208 6.36463 4.88471 6.4115 4.22004 6.67713ZM32.7722 9.19275C33.0756 9.50525 33.1334 9.724 33.1334 10.5209V11.4584H18.6117H4.08999V10.5834C4.08999 9.83338 4.14779 9.6615 4.50903 9.25525L4.92806 8.80213H18.6839H32.4254L32.7722 9.19275Z" fill="#273895"/>
<path d="M9.47986 17.8646C8.80074 18.1615 8.67069 19.0834 9.21977 19.6615L9.56656 20.0521H18.6842C27.5995 20.0521 27.7873 20.0521 28.0763 19.7396C28.5098 19.2709 28.4664 18.4427 27.9896 18.0365C27.6139 17.7084 27.4983 17.7084 18.6986 17.724C13.8002 17.724 9.65325 17.7865 9.47986 17.8646Z" fill="#273895"/>
<path d="M41.7449 18.0364C41.268 18.4426 41.2247 19.2708 41.6582 19.7395C41.9471 20.052 42.135 20.052 55.1106 20.052H68.274L68.6931 20.5051C69.0543 20.9114 69.1121 21.0833 69.1121 21.8333V22.7083H61.3961C53.8246 22.7083 53.6801 22.7083 53.3044 23.0364C52.8276 23.4426 52.7842 24.2708 53.2177 24.7395C53.5067 25.052 53.6946 25.052 61.3094 25.052H69.1121V33.4582C69.1121 42.802 69.1555 42.3957 68.1296 42.7082C67.8406 42.7864 66.7713 42.8645 65.7598 42.8645C64.0982 42.8645 63.8814 42.8957 63.6213 43.177C63.2601 43.5676 63.2456 44.3332 63.6069 44.7239C63.7658 44.8957 64.1271 45.0832 64.416 45.1457C65.2975 45.3176 68.5486 45.1301 69.1121 44.8645C69.849 44.5207 70.5282 43.8645 70.8894 43.1145C71.2073 42.4739 71.2073 42.4582 71.2506 31.7707C71.2795 23.6301 71.2506 20.8958 71.1061 20.3645C70.8605 19.3645 69.7045 18.1458 68.7942 17.8958C68.3029 17.7551 64.6328 17.7083 55.125 17.7083C42.1928 17.7083 42.135 17.7083 41.7449 18.0364Z" fill="#273895"/>
<path d="M12.8759 22.9427C12.3413 23.2552 12.1968 24.0208 12.587 24.5677L12.8615 24.974L18.5835 25.0208C24.161 25.0521 24.3199 25.0521 24.6089 24.7396C25.0424 24.2708 24.999 23.4427 24.5222 23.0365C24.1465 22.724 23.9876 22.7083 18.6991 22.7083C14.2342 22.724 13.1938 22.7552 12.8759 22.9427Z" fill="#273895"/>
<path d="M37.1801 22.802C32.8742 23.3645 29.2907 24.7864 26.1552 27.1926C24.638 28.3489 22.1672 31.0208 21.0979 32.6614C19.2773 35.427 17.8323 39.1614 17.2977 42.4739C16.922 44.7864 16.9509 48.5051 17.3555 50.7864C18.9305 59.4114 24.508 66.2864 32.1517 69.0208C35.1572 70.0833 39.0441 70.4583 41.9773 69.9426L42.512 69.8645L42.5553 73.8489L42.5987 77.8333L43.0322 78.5208C43.5523 79.302 44.2315 79.8333 44.9973 80.052C45.3585 80.1614 50.3725 80.1926 59.5334 80.177C75.0521 80.1301 73.8528 80.2083 74.8787 79.0989C75.8902 78.0051 75.8324 78.9426 75.8758 65.4739C75.9047 53.3489 75.9047 53.3333 75.6012 52.552C75.2689 51.7083 74.5464 50.927 73.795 50.5833C73.4049 50.4114 72.0178 50.3645 66.946 50.3645H60.5738L60.6894 49.302C60.8772 47.5676 60.7905 44.1614 60.516 42.4739C59.4901 36.0208 55.8777 30.0989 50.8349 26.5833C48.4796 24.927 45.3296 23.5989 42.6709 23.1145C41.2982 22.8489 38.1338 22.677 37.1801 22.802ZM42.4542 25.4426C49.3899 26.7551 55.4153 32.4114 57.6694 39.7551C58.3919 42.1458 58.6231 43.8333 58.6087 46.6926C58.5942 48.0676 58.522 49.4426 58.4642 49.7395L58.3341 50.2864H57.1204C56.3834 50.2864 55.9066 50.2239 55.9211 50.1301C56.4123 46.7395 56.1812 43.3489 55.2275 40.3489C54.5195 38.1145 52.9156 35.1614 52.2509 34.8801C51.7885 34.6926 51.2105 34.9739 50.9071 35.5676C50.6615 36.052 50.5603 35.802 51.8897 38.1458C52.7133 39.5989 53.378 41.4426 53.7248 43.2708C54.0137 44.7708 54.0571 47.6614 53.8114 49.2239L53.6236 50.3645H49.3466C44.6216 50.3645 44.3904 50.4114 43.4945 51.3958C42.6131 52.3645 42.5987 52.3645 42.5264 57.552L42.4542 62.3176L41.7317 62.5208C40.648 62.8333 37.3535 62.802 35.9664 62.4895C34.2613 62.0833 32.5563 61.3645 31.227 60.4895C29.2618 59.1926 29.2474 59.1926 28.8139 59.4426C28.2937 59.7551 28.0336 60.3801 28.207 60.8801C28.5249 61.7864 32.1228 63.8489 34.4781 64.5051C36.6022 65.0833 38.5817 65.2708 40.5035 65.052C41.3994 64.9583 42.1941 64.8645 42.2952 64.8489C42.4831 64.8176 42.5987 67.2239 42.4108 67.427C42.1363 67.7239 38.9574 67.927 37.209 67.7395C28.2215 66.7864 21.2135 59.8958 19.4651 50.2708C19.075 48.1926 19.1183 44.3958 19.5374 42.2395C21.0256 34.6301 26.0685 28.5364 32.8164 26.1614C34.0013 25.7395 35.6918 25.3645 37.3246 25.1458C38.2349 25.0208 41.1248 25.1926 42.4542 25.4426ZM73.376 53.0989C73.6794 53.4114 73.7372 53.6301 73.7372 54.427V55.3645H59.2155H44.6938V54.3958C44.6938 53.6145 44.7516 53.3645 45.0117 53.0676L45.3152 52.7083H59.1722H73.0292L73.376 53.0989ZM73.7372 67.3333V76.9583L73.3182 77.4114L72.8992 77.8645H59.1433H45.4019L45.0551 77.4739L44.6938 77.0989V67.3958V57.7083H59.2155H73.7372V67.3333Z" fill="#273895"/>
<path d="M37.1505 27.8644C31.573 28.5519 26.7469 31.9269 23.9582 37.0831C21.0538 42.4738 20.866 49.0519 23.4525 54.6613C24.8685 57.7394 25.591 58.5363 26.4435 57.9425C26.6313 57.8019 26.8625 57.5206 26.9492 57.3175C27.1226 56.8956 27.0793 56.7863 25.9378 54.7706C24.5217 52.255 23.8426 49.5519 23.857 46.38C23.857 44.2706 24.0593 42.9269 24.6229 41.13C26.3712 35.5988 30.9662 31.3644 36.3125 30.3488C37.7719 30.0831 40.4594 30.1144 41.861 30.4425C43.5372 30.8175 45.2567 31.5363 46.6005 32.4269C48.7679 33.8644 48.5367 33.755 48.9846 33.4894C49.5337 33.1613 49.7938 32.5363 49.6204 32.0363C49.3459 31.2863 46.5716 29.5519 44.3608 28.755C42.1645 27.9581 39.3035 27.5988 37.1505 27.8644Z" fill="#273895"/>
<path d="M38.5525 32.8646C37.989 33.099 37.8301 33.4896 37.8445 34.6302C37.8445 35.5677 37.8879 35.7552 38.1769 36.0052C38.3647 36.1771 38.697 36.3021 38.9138 36.3021C39.1305 36.3021 39.4629 36.1771 39.6507 36.0052C39.9397 35.7552 39.983 35.5677 39.983 34.6146C39.9975 33.6927 39.9397 33.4427 39.7085 33.1927C39.3473 32.8177 38.9282 32.6927 38.5525 32.8646Z" fill="#273895"/>
<path d="M31.6157 37.8644C31.1678 38.0519 30.9221 38.4582 30.9221 38.9738C30.9221 39.3801 31.2834 39.8488 33.4074 42.1457C35.7482 44.6769 35.8927 44.8801 35.7338 45.2082C35.4448 45.7863 35.517 47.3019 35.8783 48.0988C36.9909 50.5675 40.3287 50.8019 41.687 48.4894L42.106 47.7863L46.4986 47.7082C50.7901 47.63 50.9057 47.6144 51.2091 47.2863C51.5993 46.8644 51.6282 46.1144 51.2669 45.6769C51.0213 45.3801 50.8335 45.3644 46.6142 45.3644H42.236L41.7881 44.5832C41.1523 43.4582 40.1698 42.8644 38.9416 42.8644C38.4358 42.8644 37.8868 42.9426 37.7278 43.0363C37.4533 43.1926 37.1787 42.9426 34.9535 40.5519C33.5953 39.0988 32.3526 37.8644 32.1937 37.8176C32.0347 37.7707 31.7746 37.7863 31.6157 37.8644ZM39.7363 45.5519C40.6177 46.4426 39.664 48.1613 38.5225 47.6925C38.0023 47.4894 37.7712 47.0988 37.7567 46.4738C37.7567 45.3488 38.9705 44.7707 39.7363 45.5519Z" fill="#273895"/>
<path d="M26.5586 45.6771C26.1974 46.1146 26.2263 46.8646 26.6164 47.2865C26.8765 47.5834 27.0932 47.6302 27.9458 47.6302C28.8416 47.6302 29.0006 47.5834 29.2462 47.2552C29.6074 46.7865 29.593 46.0677 29.2318 45.6771C28.8127 45.224 26.9343 45.224 26.5586 45.6771Z" fill="#273895"/>
<path d="M38.1772 56.9113C37.8882 57.1613 37.8448 57.3488 37.8448 58.3332C37.8304 59.3801 37.8593 59.4738 38.235 59.8332C38.7263 60.2863 39.0442 60.3019 39.5354 59.8957C39.9978 59.5051 40.1712 58.5051 39.94 57.5832C39.6944 56.6144 38.8708 56.3019 38.1772 56.9113Z" fill="#273895"/>
<path d="M49.75 61.9271C49.3165 62.3959 49.3598 63.224 49.8367 63.6302C50.2123 63.9584 50.3424 63.9584 59.0987 63.9584C66.598 63.9584 68.0285 63.9271 68.3753 63.724C69.04 63.3646 69.1556 62.6927 68.6643 62.0209L68.3753 61.6146H59.1999C50.2268 61.6146 50.0389 61.6146 49.75 61.9271Z" fill="#273895"/>
<path d="M53.2462 66.927C52.7839 67.3958 52.8128 68.2082 53.3185 68.6457C53.6942 68.9582 53.7953 68.9739 59.3006 68.927C65.4705 68.8801 65.2538 68.9114 65.4416 67.9114C65.5138 67.5051 65.456 67.3333 65.1671 67.0208L64.7914 66.6145H59.1705C53.7231 66.6145 53.5497 66.6301 53.2462 66.927Z" fill="#273895"/>
<path d="M49.778 71.974C49.3301 72.4896 49.359 73.224 49.8358 73.6302C50.2115 73.9584 50.3415 73.9584 59.2424 73.9584H68.2588L68.6056 73.5677C68.8079 73.3646 68.9669 73.0052 68.9669 72.7865C68.9669 72.5677 68.8079 72.2084 68.6056 72.0052L68.2588 71.6146H59.1701H50.0814L49.778 71.974Z" fill="#273895"/>
<path d="M9.50903 27.8802C8.801 28.3177 8.67096 28.974 9.16224 29.6459L9.45123 30.0521H14.5808C19.508 30.0521 19.7103 30.0365 19.9849 29.7396C20.3461 29.349 20.3606 28.6302 19.9993 28.1615L19.7248 27.7865L14.7542 27.7552C11.3152 27.724 9.71132 27.7709 9.50903 27.8802Z" fill="#273895"/>
<path d="M59.33 29.1146C58.6942 29.3959 58.5064 30.4584 58.9976 30.9896C59.2722 31.2865 59.4745 31.3021 62.0898 31.3021H64.9075L65.1964 30.8959C65.3698 30.6615 65.4999 30.3802 65.4999 30.2709C65.4999 29.8646 65.1675 29.3021 64.8208 29.1302C64.4017 28.9271 59.8068 28.9115 59.33 29.1146Z" fill="#273895"/>
<path d="M62.3938 34.1146C61.6858 34.4115 61.4691 35.3959 61.9604 35.9896C62.1915 36.2552 62.4083 36.3021 63.5642 36.3021C64.8358 36.3021 64.9225 36.2865 65.197 35.8959C65.3704 35.6615 65.5005 35.3802 65.5005 35.2709C65.5005 34.8177 65.1392 34.2709 64.7346 34.1146C64.2289 33.9271 62.8129 33.9271 62.3938 34.1146Z" fill="#273895"/>
<path d="M8.64052 48.0834C7.97584 48.3959 7.28227 49.0834 6.93548 49.8022C6.61759 50.4428 6.61759 50.4428 6.57425 61.2084C6.5309 73.349 6.502 72.9115 7.60016 74.0834C8.71276 75.2709 7.9036 75.2084 22.5842 75.2084C35.6321 75.2084 35.6899 75.2084 36.08 74.8803C36.5569 74.474 36.6002 73.6459 36.1667 73.1772C35.8777 72.8647 35.6899 72.8647 22.7143 72.8647H9.55083L9.1318 72.4115L8.71276 71.9584V63.5834V55.224L11.9061 55.1772C15.0561 55.1303 15.0994 55.1303 15.374 54.7553C15.7352 54.2865 15.7207 53.5678 15.3595 53.1772C15.085 52.8803 14.8827 52.8647 11.8772 52.8647H8.68387L8.74166 51.8334C8.82836 50.2866 8.97285 50.2084 11.3859 50.2084C13.3799 50.2084 14.1169 50.0522 14.348 49.5834C14.5792 49.1147 14.5214 48.5209 14.2036 48.1772C13.9435 47.8959 13.7267 47.8647 11.5015 47.8647C9.82537 47.8803 8.94396 47.9428 8.64052 48.0834Z" fill="#273895"/>
<path d="M12.6295 60.7707C12.2827 61.2395 12.2538 61.4426 12.485 61.9895C12.7595 62.6145 13.2652 62.7395 15.4327 62.677C17.3111 62.6301 17.4267 62.6145 17.6868 62.2551C18.0625 61.7551 18.0336 61.1145 17.629 60.7083C17.3111 60.3801 17.1521 60.3645 15.1148 60.3645H12.9185L12.6295 60.7707Z" fill="#273895"/>
<path d="M12.6584 65.7709C12.3694 66.0834 12.3116 66.2553 12.3838 66.6615C12.5717 67.6302 12.5283 67.6302 16.8053 67.6771L20.7067 67.724L21.0679 67.3334C21.5303 66.8334 21.5448 66.1615 21.0968 65.7084C20.7645 65.3803 20.6633 65.3646 16.892 65.3646H13.034L12.6584 65.7709Z" fill="#273895"/>
</g>
</g>
<defs>
<clipPath id="clip0_12_6091">
<rect x="0.592407" width="73.9812" height="80" rx="30" fill="white"/>
</clipPath>
<clipPath id="clip1_12_6091">
<rect width="73.9812" height="80" fill="white" transform="translate(1.92261 3.33337)"/>
</clipPath>
</defs>
</svg>
