<svg width="80" height="80" viewBox="0 0 80 80" fill="none" xmlns="http://www.w3.org/2000/svg">
<circle cx="40" cy="40" r="35" stroke="#273895" stroke-width="10" stroke-linecap="round"/>
<g clip-path="url(#clip0_55_6575)">
<path d="M60.2384 32.6452C60.2384 32.1863 60.1494 31.7402 59.974 31.3193L59.9735 31.3183L56.1413 22.1221C55.604 20.833 54.3545 20 52.9579 20H28.2805C26.8839 20 25.6343 20.833 25.0971 22.1221L21.2644 31.3192C21.089 31.7402 21 32.1863 21 32.6452V37.3967C21 38.2793 21.3337 39.0852 21.8809 39.6958C21.3337 40.3065 21 41.1123 21 41.9949V46.5932C21 47.4758 21.3337 48.2817 21.8809 48.8923C21.3337 49.503 21 50.3088 21 51.1914V55.7897C21 57.6913 22.5471 59.2384 24.4487 59.2384H56.7897C58.6913 59.2384 60.2384 57.6913 60.2384 55.7897V51.1914C60.2384 50.3088 59.9047 49.503 59.3574 48.8923C59.9048 48.2817 60.2384 47.4758 60.2384 46.5932V41.9949C60.2384 41.1123 59.9047 40.3065 59.3574 39.6958C59.9048 39.0852 60.2384 38.2793 60.2384 37.3967V32.6452ZM27.2194 23.0065C27.3985 22.5768 27.815 22.2991 28.2805 22.2991H52.9579C53.4234 22.2991 53.8399 22.5768 54.019 23.0065L56.5986 29.1965H24.6397L27.2194 23.0065ZM57.9392 55.7897C57.9392 56.4235 57.4236 56.9392 56.7897 56.9392H24.4487C23.8148 56.9392 23.2991 56.4235 23.2991 55.7897V51.1914C23.2991 50.5576 23.8148 50.0419 24.4487 50.0419H56.7897C57.4236 50.0419 57.9392 50.5576 57.9392 51.1914V55.7897ZM57.9392 46.5932C57.9392 47.2271 57.4236 47.7428 56.7897 47.7428H24.4487C23.8148 47.7428 23.2991 47.2271 23.2991 46.5932V41.9949C23.2991 41.3611 23.8148 40.8454 24.4487 40.8454H56.7897C57.4236 40.8454 57.9392 41.3611 57.9392 41.9949V46.5932ZM57.9392 37.3967C57.9392 38.0306 57.4236 38.5463 56.7897 38.5463H24.4487C23.8148 38.5463 23.2991 38.0306 23.2991 37.3967V32.6452C23.2991 32.0059 23.8154 31.4956 24.4487 31.4956H56.7897C57.425 31.4956 57.9392 32.0079 57.9392 32.6452V37.3967Z" fill="#273895"/>
<path d="M54.0015 51.9869H33.1562C32.5213 51.9869 32.0066 52.5016 32.0066 53.1365C32.0066 53.7714 32.5213 54.2861 33.1562 54.2861H54.0015C54.6364 54.2861 55.1511 53.7714 55.1511 53.1365C55.1511 52.5016 54.6364 51.9869 54.0015 51.9869Z" fill="#273895"/>
<path d="M54.0015 33.4407H33.1562C32.5213 33.4407 32.0066 33.9554 32.0066 34.5902C32.0066 35.2251 32.5213 35.7398 33.1562 35.7398H54.0015C54.6364 35.7398 55.1511 35.2251 55.1511 34.5902C55.1511 33.9554 54.6364 33.4407 54.0015 33.4407Z" fill="#273895"/>
<path d="M26.2587 33.4407C25.6238 33.4407 25.1091 33.9554 25.1091 34.5902C25.1091 35.2251 25.6238 35.8931 26.2587 35.8931C26.8936 35.8931 27.4083 35.2251 27.4083 34.5902C27.4083 33.9554 26.8936 33.4407 26.2587 33.4407Z" fill="#273895"/>
<path d="M54.0015 42.7905H33.1562C32.5213 42.7905 32.0066 43.3052 32.0066 43.9401C32.0066 44.575 32.5213 45.0897 33.1562 45.0897H54.0015C54.6364 45.0897 55.1511 44.575 55.1511 43.9401C55.1511 43.3052 54.6364 42.7905 54.0015 42.7905Z" fill="#273895"/>
<path d="M26.2587 45.0897C26.8936 45.0897 27.4083 44.575 27.4083 43.9401C27.4083 43.3052 26.8936 42.7905 26.2587 42.7905C25.6238 42.7905 25.1091 43.3052 25.1091 43.9401C25.1091 44.575 25.6238 45.0897 26.2587 45.0897Z" fill="#273895"/>
<path d="M26.2587 54.2861C26.8936 54.2861 27.4083 53.7714 27.4083 53.1365C27.4083 52.5016 26.8936 51.9869 26.2587 51.9869C25.6238 51.9869 25.1091 52.5016 25.1091 53.1365C25.1091 53.7714 25.6238 54.2861 26.2587 54.2861Z" fill="#273895"/>
</g>
<defs>
<clipPath id="clip0_55_6575">
<rect width="39.2384" height="39.2384" fill="white" transform="translate(20.511 19.646)"/>
</clipPath>
</defs>
</svg>
