<svg width="21" height="25" viewBox="0 0 21 25" fill="none" xmlns="http://www.w3.org/2000/svg">
<path d="M5.68182 9.09091C5.05422 9.09091 4.54545 9.59968 4.54545 10.2273C4.54545 10.8549 5.05422 11.3636 5.68182 11.3636H14.7727C15.4003 11.3636 15.9091 10.8549 15.9091 10.2273C15.9091 9.59968 15.4003 9.09091 14.7727 9.09091H5.68182Z" fill="#243FD6" fill-opacity="0.5"/>
<path d="M5.68182 13.6364C5.05422 13.6364 4.54545 14.1451 4.54545 14.7727C4.54545 15.4003 5.05422 15.9091 5.68182 15.9091H10.2273C10.8549 15.9091 11.3636 15.4003 11.3636 14.7727C11.3636 14.1451 10.8549 13.6364 10.2273 13.6364H5.68182Z" fill="#243FD6" fill-opacity="0.5"/>
<path d="M5.68182 18.1818C5.05422 18.1818 4.54545 18.6906 4.54545 19.3182C4.54545 19.9458 5.05422 20.4545 5.68182 20.4545H14.7727C15.4003 20.4545 15.9091 19.9458 15.9091 19.3182C15.9091 18.6906 15.4003 18.1818 14.7727 18.1818H5.68182Z" fill="#243FD6" fill-opacity="0.5"/>
<path fill-rule="evenodd" clip-rule="evenodd" d="M20.3168 4.7018C20.2253 4.48047 20.0911 4.27939 19.9217 4.11011L16.3449 0.533334C16.0043 0.192262 15.5421 0.000424819 15.0601 0H1.81818C1.33597 0 0.873508 0.191558 0.532533 0.532533C0.191558 0.873508 0 1.33597 0 1.81818V23.1818C0 23.4206 0.047029 23.657 0.138401 23.8776C0.229772 24.0982 0.363697 24.2986 0.532533 24.4675C0.701365 24.6363 0.901799 24.7702 1.12239 24.8616C1.34299 24.953 1.57942 25 1.81818 25H18.6364C18.8751 25 19.1116 24.953 19.3322 24.8616C19.5527 24.7702 19.7532 24.6363 19.922 24.4675C20.0908 24.2986 20.2248 24.0982 20.3161 23.8776C20.4075 23.657 20.4545 23.4206 20.4545 23.1818V5.39808L19.3182 5.39773L20.4545 5.40051L20.4545 5.39808C20.4548 5.15919 20.408 4.92259 20.3168 4.7018ZM13.6364 5.11364C13.6364 6.05503 14.3995 6.81818 15.3409 6.81818H18.1818V22.7273H2.27273V2.27273H13.6364V5.11364ZM17.1429 4.54545L15.9091 3.31161V4.54545H17.1429Z" fill="#243FD6" fill-opacity="0.5"/>
</svg>
