<svg width="25" height="24" viewBox="0 0 25 24" fill="none" xmlns="http://www.w3.org/2000/svg">
<path d="M4.39783 1.82736C4.39783 2.83363 4.40722 3.66435 4.41661 3.67376C4.42601 3.6863 4.49176 3.67376 4.56378 3.65181C4.63579 3.62673 4.80488 3.58598 4.93639 3.55777L5.18062 3.50448L5.18688 2.24742L5.19627 0.987233H13.2747H21.353L21.3624 6.46373C21.3656 9.47941 21.3781 11.9434 21.3906 11.9434C21.4031 11.9434 21.5816 11.7772 21.782 11.5766L22.1515 11.2067V5.60479V-0.000228882H13.2747H4.39783V1.82736Z" fill="#243FD6" fill-opacity="0.5"/>
<path d="M5.4687 4.07527C4.20371 4.23515 3.07962 4.9154 2.40956 5.9248C1.90544 6.68029 1.67374 7.43891 1.67374 8.32293C1.67374 9.42011 2.07452 10.4577 2.79782 11.2289L3.02639 11.4734L2.92307 11.6521C2.86671 11.7524 2.65066 12.1286 2.44087 12.4922C2.23108 12.8527 1.86474 13.4891 1.62677 13.9029C1.3888 14.3167 0.944176 15.0847 0.640454 15.6113C0.336732 16.138 0.0674525 16.6176 0.0424033 16.6772C-0.023351 16.8402 -0.0108264 17.1944 0.0674525 17.37C0.346125 17.9938 1.16649 18.138 1.63303 17.6427C1.68626 17.5863 2.14967 16.812 2.66005 15.9248C3.17356 15.0377 3.83736 13.8841 4.13795 13.3668L4.68278 12.4201L4.81428 12.4609C5.27769 12.5988 6.07301 12.6427 6.6053 12.5549C8.20846 12.2947 9.5298 11.1631 10.012 9.63641C10.1592 9.16932 10.203 8.86525 10.203 8.32293C10.203 7.93108 10.1873 7.75239 10.1341 7.50161C9.94312 6.61446 9.5799 5.93734 8.95367 5.31352C8.32431 4.68342 7.63545 4.31352 6.77439 4.13797C6.4143 4.06273 5.79747 4.03452 5.4687 4.07527ZM6.62722 5.76493C7.99554 6.11603 8.9161 7.47339 8.72197 8.85271C8.63429 9.47026 8.36814 10.0032 7.92039 10.4577C7.50395 10.8778 7.05619 11.1192 6.46753 11.2383C6.14816 11.3041 5.55011 11.2884 5.24325 11.2069C4.86125 11.1066 4.43228 10.8778 4.09099 10.5988C3.74343 10.3135 3.34577 9.66462 3.22366 9.185C3.14225 8.86838 3.12659 8.27904 3.19235 7.95929C3.43031 6.7806 4.354 5.89032 5.54071 5.70537C5.80999 5.66461 6.34855 5.69283 6.62722 5.76493Z" fill="#243FD6" fill-opacity="0.5"/>
<path d="M9.00011 4.02516C9.01577 4.04084 9.1191 4.11921 9.22869 4.20385C9.48544 4.3982 9.833 4.74303 10.0428 5.00949L10.2087 5.22266H14.7677H19.3267L19.4644 5.15683C19.5552 5.1098 19.6335 5.04084 19.6961 4.94366C19.7775 4.81513 19.7869 4.77751 19.7775 4.59256C19.765 4.33237 19.6617 4.16309 19.4644 4.06592L19.3267 4.00008H14.1477C11.2984 4.00008 8.98133 4.01262 9.00011 4.02516Z" fill="#243FD6" fill-opacity="0.5"/>
<path d="M10.5506 6.89334C10.6069 7.05948 10.7134 7.55792 10.7384 7.79616L10.7603 7.99365H14.8809H19.0015L19.1393 7.92782C19.2301 7.8808 19.3084 7.81183 19.371 7.71466C19.4524 7.58613 19.4618 7.54851 19.4524 7.36356C19.4399 7.10337 19.3366 6.93409 19.1393 6.83691L19.0015 6.77108H14.7526H10.5067L10.5506 6.89334Z" fill="#243FD6" fill-opacity="0.5"/>
<path d="M10.6758 9.28526C10.6696 9.3072 10.6351 9.44514 10.5976 9.5862C10.5443 9.79937 10.4504 10.0658 10.2938 10.4295C10.2813 10.4608 11.1643 10.4702 14.6493 10.4702C18.8795 10.4702 19.0266 10.4671 19.1393 10.4107C19.3711 10.2915 19.4712 10.1066 19.4525 9.82758C19.4399 9.60188 19.3585 9.46081 19.1832 9.33855L19.0705 9.26332L14.881 9.25391C11.5306 9.24764 10.6884 9.25391 10.6758 9.28526Z" fill="#243FD6" fill-opacity="0.5"/>
<path d="M23.2005 11.1002C23.166 11.119 21.1715 13.1002 18.7699 15.5015C14.5303 19.7397 14.3956 19.8683 14.214 19.9372C14.0669 19.9905 13.9792 20.0031 13.807 19.9937C13.4031 19.9686 13.3937 19.9592 12.1318 18.699C11.5025 18.072 10.9514 17.5422 10.9044 17.5266C10.7103 17.4545 10.6539 17.4952 9.90244 18.2507C9.50478 18.6488 9.17914 19.0031 9.16975 19.0469C9.11652 19.2601 9.07581 19.2162 11.4367 21.5736C12.9898 23.1285 13.7099 23.8275 13.7694 23.8432C13.8195 23.8526 13.9009 23.8526 13.951 23.8369C14.0136 23.8181 15.7796 22.0689 19.4619 18.3855C22.4427 15.4012 24.9069 12.9278 24.9414 12.8871C25.0134 12.7993 25.0197 12.6614 24.957 12.5454C24.9007 12.4451 23.6044 11.1504 23.5073 11.1002C23.4228 11.0563 23.2819 11.0563 23.2005 11.1002Z" fill="#243FD6" fill-opacity="0.5"/>
<path d="M9.21975 11.8872C8.83775 12.2477 8.32737 12.5737 7.82638 12.79C7.68861 12.8496 7.56337 12.9092 7.54771 12.9217C7.52892 12.9342 10.1059 12.9468 13.2683 12.9468C18.8543 12.9468 19.0265 12.9436 19.1392 12.8872C19.371 12.7681 19.4711 12.5831 19.4524 12.3041C19.4367 12.0565 19.3334 11.8841 19.1392 11.79L19.0015 11.7242H14.1952L9.39196 11.7273L9.21975 11.8872Z" fill="#243FD6" fill-opacity="0.5"/>
<path d="M4.39783 17.583V22.1943H7.75443H11.1142L10.6288 21.7084L10.1435 21.2225H7.66362H5.18062V17.1849V13.1442L4.86124 13.0752C4.68276 13.0344 4.50742 12.9968 4.46984 12.9874L4.39783 12.9718V17.583Z" fill="#243FD6" fill-opacity="0.5"/>
<path d="M7.45075 14.2603C7.14076 14.4045 7.00925 14.7556 7.15015 15.0628C7.21904 15.2102 7.35055 15.3418 7.47579 15.3889C7.53842 15.4139 9.16349 15.4233 12.7518 15.4233H17.9432L18.5162 14.8403C18.9546 14.3983 19.083 14.2509 19.0485 14.229C19.0235 14.2133 16.5687 14.2008 13.2903 14.2008C7.80143 14.2008 7.56973 14.2039 7.45075 14.2603Z" fill="#243FD6" fill-opacity="0.5"/>
<path d="M21.7506 17.0313L21.3686 17.4138V19.3197V21.2225H19.4649H17.5643L17.079 21.7084L16.5936 22.1943H19.3741H22.1514V19.42C22.1514 17.8934 22.1483 16.6457 22.142 16.6457C22.1389 16.6457 21.9636 16.8182 21.7506 17.0313Z" fill="#243FD6" fill-opacity="0.5"/>
<path d="M7.45066 16.7364C6.99038 16.9495 6.96846 17.5859 7.41308 17.8398C7.54146 17.9119 7.56338 17.9151 8.41505 17.9245L9.28551 17.937L9.7771 17.4511C10.3344 16.9057 10.4315 16.8492 10.8198 16.8524C11.1673 16.8586 11.3176 16.9495 11.8499 17.4762L12.3071 17.9307H13.8664H15.4288L16.0332 17.3195C16.3682 16.984 16.6406 16.7019 16.6406 16.6925C16.6406 16.6831 14.6022 16.6768 12.1098 16.6768C7.77003 16.6768 7.56964 16.68 7.45066 16.7364Z" fill="#243FD6" fill-opacity="0.5"/>
</svg>
