<svg width="20" height="20" viewBox="0 0 20 20" fill="none" xmlns="http://www.w3.org/2000/svg">
<path d="M19.5489 3.6578L16.3356 0.450304C16.193 0.307566 16.0235 0.194317 15.837 0.117046C15.6505 0.0397749 15.4505 0 15.2486 0C15.0466 0 14.8467 0.0397749 14.6601 0.117046C14.4736 0.194317 14.3042 0.307566 14.1616 0.450304L1.08902 13.5753L0.0306321 18.1534C-0.0144578 18.3753 -0.00971774 18.6044 0.0445122 18.8243C0.0987421 19.0442 0.201113 19.2493 0.344263 19.425C0.487413 19.6006 0.667783 19.7424 0.872399 19.8402C1.07702 19.938 1.30079 19.9892 1.52763 19.9903C1.64488 20.0032 1.76319 20.0032 1.88043 19.9903L6.50493 18.9719L19.5489 5.82786C19.6919 5.68551 19.8053 5.5164 19.8827 5.33021C19.9602 5.14402 20 4.94441 20 4.74283C20 4.54124 19.9602 4.34164 19.8827 4.15545C19.8053 3.96926 19.6919 3.80015 19.5489 3.6578ZM5.51329 17.2111L2.02346 17.9821L2.83394 14.5271L12.6741 4.63813L15.363 7.32215L5.51329 17.2111ZM16.4405 6.24664L13.7516 3.56262L15.2295 2.05881L17.9375 4.76186L16.4405 6.24664Z" fill="#243FD6" fill-opacity="0.5"/>
</svg>
