<svg width="20" height="20" viewBox="0 0 20 20" fill="none" xmlns="http://www.w3.org/2000/svg">
<path d="M17.2497 1.47368H13.0879V1.43158C13.0879 0.631579 12.4636 0 11.6729 0H8.84287C8.05213 0 7.42787 0.631579 7.42787 1.43158V1.47368H3.26608C2.82909 1.47368 2.47534 1.83158 2.47534 2.27368V3.07368C2.47534 3.51579 2.82909 3.87368 3.26608 3.87368H17.2497C17.6867 3.87368 18.0404 3.51579 18.0404 3.07368V2.27368C18.0404 1.83158 17.6867 1.47368 17.2497 1.47368Z" fill="#7D90B2"/>
<path d="M16.2092 4.96851H4.30649C4.07759 4.96851 3.91112 5.15798 3.93193 5.38956L4.51458 17.579C4.57701 18.9264 5.67988 20.0001 7.01165 20.0001H13.4832C14.815 20.0001 15.9179 18.9475 15.9803 17.579L16.5629 5.38956C16.6046 5.17903 16.4173 4.96851 16.2092 4.96851ZM8.96769 16.7369C8.96769 17.1159 8.67637 17.4106 8.30181 17.4106C7.92724 17.4106 7.63592 17.1159 7.63592 16.7369V8.25272C7.63592 7.87377 7.92724 7.57903 8.30181 7.57903C8.67637 7.57903 8.96769 7.87377 8.96769 8.25272V16.7369ZM12.8798 16.7369C12.8798 17.1159 12.5884 17.4106 12.2139 17.4106C11.8393 17.4106 11.548 17.1159 11.548 16.7369V8.25272C11.548 7.87377 11.8393 7.57903 12.2139 7.57903C12.5884 7.57903 12.8798 7.87377 12.8798 8.25272V16.7369Z" fill="#7D90B2"/>
</svg>
