<svg width="280" height="279" viewBox="0 0 280 279" fill="none" xmlns="http://www.w3.org/2000/svg">
<path d="M36.6406 14.1952C33.5781 14.7946 30.707 17.1105 29.3125 20.1076L28.5742 21.6606V139.5V257.339L29.4766 259.165C30.5703 261.399 32.7305 263.442 34.9453 264.342L36.5039 264.968H140H243.496L245.055 264.342C247.27 263.442 249.43 261.399 250.523 259.165L251.426 257.339V139.5V21.6606L250.523 19.8351C249.43 17.601 247.27 15.5575 245.055 14.6584L243.496 14.0317L140.684 14.0045C82.6602 13.9772 37.3516 14.059 36.6406 14.1952ZM237.344 108.576V188.815H140H42.6563V108.576V28.3359H140H237.344V108.576ZM101.418 204.509C110.715 206.171 116.594 212.765 117.277 222.328C117.77 229.085 116.348 234.78 113.066 239.384C110.141 243.471 105 246.141 98.3008 247.122C94.7734 247.612 85.4492 247.367 82.2227 246.686L81.4844 246.523L81.5391 225.788L81.6211 205.027L83.8086 204.673C86.3789 204.264 93.4883 203.91 96.7969 204.019C98.082 204.073 100.16 204.291 101.418 204.509ZM144.949 204.209C150.281 204.7 155.613 208.46 158.293 213.555C161.109 219.004 161.793 227.123 159.934 233.771C158.047 240.583 152.824 245.651 146.289 247.013C143.254 247.667 138.387 247.422 135.461 246.468C129.582 244.588 125.426 239.902 123.566 233.09C123.047 231.238 122.965 230.148 122.938 226.006C122.91 220.312 123.293 218.05 124.934 214.563C127.367 209.386 131.277 205.953 136.172 204.618C137.648 204.209 141.148 203.855 142.461 203.964C142.98 204.019 144.102 204.128 144.949 204.209ZM190.914 204.209C193.594 204.427 196.383 205.354 198.461 206.662C198.516 206.716 196.055 217.233 195.945 217.369C195.891 217.397 195.016 217.07 193.977 216.634C187.523 213.909 182.027 215.299 179.73 220.257C178.992 221.838 178.965 222.11 178.965 225.734C178.965 229.385 178.992 229.63 179.758 231.265C181.973 236.033 187.441 237.422 194.031 234.889L196.055 234.098L196.191 234.698C196.41 235.57 197.969 244.452 197.969 244.697C197.969 245.079 195.973 245.978 193.676 246.632C190.832 247.449 183.531 247.531 180.742 246.768C174.754 245.16 169.969 240.992 167.809 235.461C165.648 229.903 165.703 222.165 167.918 216.634C170.16 211.021 174.699 206.771 180.387 204.972C182.492 204.318 186.375 203.801 188.125 203.964C188.645 204.019 189.902 204.128 190.914 204.209Z" fill="#2E3B52"/>
<path d="M66.4453 55.0099V56.8898L67.6484 57.4893C69.2891 58.2794 70.3555 59.9142 71.4766 63.4834C71.9688 65.0637 75.1953 76.9157 78.6406 89.8304L84.875 113.344H89.9609H95.0742L100.488 94.1353C103.496 83.5638 106.012 74.9268 106.094 74.9268C106.176 74.9268 108.336 83.5638 110.879 94.1353L115.527 113.344H120.586H125.645L130.949 96.9144C142.215 62.1211 142.789 60.5681 144.922 58.5246C145.551 57.9524 146.344 57.4075 146.699 57.3258C147.355 57.1623 147.383 57.0533 147.383 55.1461V53.1299H137.949H128.516V55.0371V56.9443L129.527 57.353C130.84 57.8979 131.715 58.7153 132.426 60.0776C132.918 60.9768 133 61.6034 133 63.7559C132.973 65.1727 132.754 67.1889 132.508 68.2515C131.824 71.194 124.852 94.2442 124.688 94.108C124.633 94.0263 122.391 84.8171 119.766 73.6189L114.98 53.2661L110.277 53.1844L105.574 53.1299L105.273 54.2742C104.398 57.5165 94.2812 93.6448 94.1445 93.999C94.0625 94.217 92.3398 87.8414 90.3164 79.8311C86.1875 63.4289 85.8867 61.7669 87.0078 59.6962C87.6094 58.5519 88.9492 57.571 90.5898 57.1078C90.9727 56.9716 91.0547 56.6446 91.0547 55.0371V53.1299H78.75H66.4453V55.0099Z" fill="#2E3B52"/>
<path d="M153.672 83.2368V88.2773H183.613H213.555V83.2368V78.1963H183.613H153.672V83.2368Z" fill="#2E3B52"/>
<path d="M153.727 108.494L153.809 113.48H183.613H213.418L213.5 108.494L213.555 103.535H183.613H153.672L153.727 108.494Z" fill="#2E3B52"/>
<path d="M66.9922 133.778V138.683H140.273H213.555V133.778V128.874H140.273H66.9922V133.778Z" fill="#2E3B52"/>
<path d="M66.9922 158.981V164.021H140.273H213.555L213.5 159.035L213.418 154.077L140.219 153.995L66.9922 153.94V158.981Z" fill="#2E3B52"/>
<path d="M94.0625 225.734V236.578L95.8672 236.387C101.008 235.869 103.77 232.981 104.508 227.369C105.055 223.118 103.961 218.704 101.938 217.015C100.27 215.626 98.9844 215.162 96.4688 215.026L94.0625 214.917V225.734Z" fill="#2E3B52"/>
<path d="M139.672 215.353C138.141 215.898 137.348 216.497 136.445 217.751C135.297 219.304 134.805 221.184 134.613 224.399C134.203 231.891 136.883 236.333 141.914 236.333C145.469 236.333 147.875 234.044 148.75 229.875C149.16 227.832 149.16 222.846 148.723 221.102C148.094 218.486 146.836 216.634 145.113 215.762C143.691 215.026 141.039 214.835 139.672 215.353Z" fill="#2E3B52"/>
</svg>
