<svg width="279" height="279" viewBox="0 0 279 279" fill="none" xmlns="http://www.w3.org/2000/svg">
<path d="M38.7712 4.08681C34.657 4.44101 32.2594 5.5581 31.1423 7.71054C29.9434 10.0265 29.9979 5.58534 29.9979 139.5C29.9979 272.079 29.9707 269.001 31.0605 271.126C32.3139 273.578 34.5208 274.532 39.6158 274.94C41.959 275.104 77.1337 275.185 142.225 275.104C248.157 275.022 242.735 275.076 245.515 273.66C247.803 272.515 248.593 270.69 249.029 265.704C249.22 263.551 249.302 229.548 249.247 160.343C249.166 60.568 249.166 58.1431 248.648 57.0805C247.912 55.5274 197.861 5.47636 196.172 4.57724L194.946 3.95058L118.112 3.92333C75.8531 3.89609 40.1607 3.97782 38.7712 4.08681ZM185.11 17.1649C185.491 17.3012 186.009 17.7371 186.282 18.173C186.745 18.8542 186.772 20.271 186.935 39.098C187.044 53.2932 187.181 59.6143 187.426 60.4862C188.162 63.2653 189.497 64.6821 192.194 65.5812C193.42 65.9899 195.954 66.0444 213.882 66.1807C232.845 66.3441 234.262 66.3714 234.943 66.8346C235.379 67.107 235.815 67.6247 235.978 68.0061C236.142 68.4421 236.196 89.9937 236.169 126.585L236.087 184.429L235.461 185.055L234.834 185.682L140.236 185.764C88.2228 185.791 45.2285 185.764 44.7381 185.682C44.1932 185.573 43.6755 185.246 43.3758 184.783C42.9398 184.102 42.9126 179.552 42.9126 101.628C42.9126 56.2903 43.0216 18.8542 43.1306 18.4455C43.5937 16.8107 38.7712 16.9197 114.761 16.8925C158.409 16.8925 184.674 17.0015 185.11 17.1649ZM125.877 204.237C128.193 204.754 131.599 206.444 133.56 207.997C139.718 212.901 143.233 223.118 142.279 233.444C141.026 247.313 134.051 255.786 122.744 257.203C113.153 258.402 104.87 253.252 101.056 243.716C97.9769 236.006 98.0859 225.189 101.328 217.369C103.562 212.029 108.031 207.288 112.663 205.299C116.177 203.801 122.062 203.337 125.877 204.237ZM177.427 204.182C179.851 204.645 182.549 205.626 182.74 206.117C182.876 206.471 181.105 214.89 180.832 215.162C180.751 215.217 179.715 214.972 178.544 214.563C176.01 213.664 171.405 213.337 168.871 213.854C165.03 214.672 161.542 217.424 159.853 221.02C158.436 223.963 157.918 226.687 157.946 230.911C158 236.687 159.335 240.528 162.387 243.607C164.948 246.196 168.081 247.394 172.413 247.394C174.756 247.394 178.189 246.822 179.797 246.141C180.315 245.923 180.751 245.787 180.805 245.814C180.832 245.869 181.241 247.967 181.677 250.5L182.494 255.078L181.513 255.486C178.026 256.931 170.67 257.639 166.201 256.958C156.583 255.459 149.717 248.62 147.701 238.485C145.412 227.096 148.546 215.625 155.548 209.55C158.491 206.988 162.387 205.054 166.065 204.264C168.572 203.719 174.811 203.692 177.427 204.182ZM76.1528 204.863C85.5255 206.825 91.3561 212.547 93.5358 221.892C93.999 223.881 94.108 225.298 94.108 229.14C94.1352 234.262 93.8355 236.55 92.7184 240.174C89.7759 249.547 83.3185 254.86 72.8016 256.549C68.4422 257.23 54.9826 256.958 54.138 256.14C54.029 256.031 53.9745 244.561 54.0017 230.611L54.0835 205.299L55.8 204.972C60.7043 203.991 71.7934 203.937 76.1528 204.863ZM199.714 208.078C200.504 210.013 202.166 214.045 203.392 217.069L205.626 222.6L206.798 219.249C207.425 217.424 208.978 213.419 210.204 210.34L212.465 204.754L218.35 204.673C221.592 204.645 224.235 204.673 224.235 204.782C224.235 204.863 221.402 210.53 217.914 217.396L211.593 229.821L216.988 240.583C219.958 246.495 222.982 252.462 223.718 253.824C224.453 255.187 224.971 256.386 224.862 256.467C224.78 256.576 222.137 256.658 219.059 256.658C214.863 256.658 213.337 256.576 213.119 256.331C212.874 256.004 205.408 239.057 205.136 238.185C205.054 237.995 204.1 240.201 203.011 243.09C201.894 245.978 200.232 250.174 199.305 252.435L197.616 256.522L192.058 256.604C189.006 256.631 186.363 256.604 186.173 256.549C185.927 256.44 187.889 252.244 192.385 243.28L198.951 230.148L192.875 217.86C189.551 211.103 186.717 205.354 186.581 205.081C186.363 204.645 186.717 204.618 192.303 204.618H198.243L199.714 208.078Z" fill="#2E3B52"/>
<path d="M65.7177 54.9554C65.7722 55.2278 67.6522 63.2109 69.9136 72.6653L73.9733 89.9121H78.3599H82.7193L84.8445 80.2942C85.9888 75.0357 87.2149 69.1506 87.5418 67.2161C87.8688 65.3089 88.1958 63.7559 88.2775 63.7559C88.3592 63.7559 88.6317 65.3906 88.9042 67.3523C89.1766 69.3413 90.212 75.1992 91.2473 80.376L93.0728 89.7759L97.4322 89.8576L101.764 89.9121L106.233 72.5563C108.685 62.993 110.756 55.0099 110.837 54.8191C110.919 54.5739 110.02 54.4922 106.887 54.4922H102.827L101.001 63.8104C99.9933 68.9599 98.9307 74.8178 98.6038 76.834C98.0043 80.7029 97.8681 81.3296 97.7046 81.1661C97.6501 81.1116 97.3232 79.2861 97.0235 77.1064C96.5331 73.7279 93.9992 59.8324 93.1273 55.7728L92.8548 54.4922L88.6044 54.5467L84.3541 54.6284L82.2289 64.9819C81.0845 70.6764 79.9129 76.616 79.6677 78.1963C79.3953 79.7766 79.0956 81.1661 79.0138 81.2751C78.9048 81.3841 78.6051 80.158 78.3599 78.5505C78.0875 76.943 77.0249 70.9216 75.9895 65.1999C74.9542 59.451 74.1095 54.7102 74.1095 54.6284C74.1095 54.5467 72.2023 54.4922 69.8591 54.4922C65.9357 54.4922 65.6087 54.5194 65.7177 54.9554Z" fill="#2E3B52"/>
<path d="M124.787 85.5527V89.9121H169.198H213.609V85.5527V81.1934H169.198H124.787V85.5527Z" fill="#2E3B52"/>
<path d="M65.6631 112.526V116.886H139.636H213.609V112.526V108.167H139.636H65.6631V112.526Z" fill="#2E3B52"/>
<path d="M65.6631 139.5V143.859H139.636H213.609V139.5V135.141H139.636H65.6631V139.5Z" fill="#2E3B52"/>
<path d="M65.6631 166.473V170.833H139.636H213.609V166.473V162.114H139.636H65.6631V166.473Z" fill="#2E3B52"/>
<path d="M118.33 213.446C114.488 214.699 112.118 217.723 110.565 223.309C110.047 225.162 109.965 226.17 109.965 230.638C109.965 235.134 110.047 236.087 110.565 237.94C111.845 242.545 114.188 245.896 117.077 247.204C118.957 248.048 122.226 248.021 124.161 247.149C127.239 245.787 129.773 241.891 130.809 237.014C131.435 233.989 131.571 228.104 131.054 225.189C130.046 219.44 127.348 215.271 123.588 213.664C122.362 213.119 119.638 213.01 118.33 213.446Z" fill="#2E3B52"/>
<path d="M65.3361 213.527L64.5732 213.636V230.665V247.667H67.6521C72.8833 247.667 75.7714 246.631 78.605 243.743C81.7383 240.556 83.0733 236.414 83.1006 229.793C83.1006 223.908 82.0107 220.312 79.2861 217.342C77.7331 215.625 75.4444 214.345 72.9923 213.745C71.3848 213.364 67.1616 213.255 65.3361 213.527Z" fill="#2E3B52"/>
</svg>
