<svg width="279" height="279" viewBox="0 0 279 279" fill="none" xmlns="http://www.w3.org/2000/svg">
<path d="M34.1119 0.51768C31.5235 1.4168 29.2076 3.78721 28.472 6.34834C28.1178 7.62891 28.0633 22.6415 28.1178 140.045L28.1995 272.325L28.9624 273.85C29.8343 275.649 31.6597 277.447 33.458 278.264L34.7386 278.864H139.5C242.109 278.864 244.288 278.864 245.623 278.346C247.313 277.692 249.411 275.758 250.337 273.959L251.073 272.597L251.154 167.1L251.209 61.5762L224.453 61.5217L197.67 61.4399L195.899 60.5953C193.638 59.5327 191.676 57.571 190.613 55.3096L189.769 53.5386L189.687 26.7557L189.633 3.81283e-06H112.581C38.6892 0.0272499 35.5014 0.0272499 34.1119 0.51768ZM91.6284 128.738C100.729 130.1 108.385 135.74 112.036 143.778C113.616 147.32 114.243 150.344 114.243 154.758C114.243 159.144 113.888 161.242 112.526 164.784C110.782 169.362 106.995 174.103 103.017 176.8C93.0724 183.53 79.3132 183.23 69.8315 176.064C65.3632 172.658 61.9846 167.618 60.4316 161.978C59.9139 160.098 59.8322 159.117 59.8322 155.03C59.8322 150.616 59.8867 150.071 60.5951 147.81C62.0119 143.069 63.7012 140.154 66.9979 136.694C73.1555 130.236 82.2013 127.321 91.6284 128.738ZM147.892 129.419C154.948 130.155 160.697 132.879 165.166 137.538C168.517 141.053 170.615 145.14 171.514 149.99C172.195 153.559 171.95 158.926 170.969 162.223C168.217 171.541 161.106 177.944 151.079 180.151C148.9 180.642 147.265 180.723 136.584 180.832L124.514 180.969V155.058V129.146H134.95C140.671 129.146 146.502 129.283 147.892 129.419ZM221.102 134.459V139.636L213.282 139.718L205.435 139.772V160.343V180.914L199.795 180.86L194.128 180.778L194.046 160.262L193.992 139.772H186.227H178.462V134.459V129.146L199.795 129.201L221.102 129.283V134.459Z" fill="#2E3B52"/>
<path d="M84.8712 138.955C78.1687 139.854 72.9919 144.868 71.7931 151.625C71.3027 154.349 71.3027 155.439 71.7931 158.164C72.883 164.212 77.3241 169.171 83.1002 170.697C85.062 171.215 89.1216 171.215 91.1378 170.697C96.4236 169.307 100.619 164.866 102.064 159.117C102.717 156.474 102.499 152.006 101.546 149.309C99.0392 142.252 92.2004 138.002 84.8712 138.955Z" fill="#2E3B52"/>
<path d="M135.958 155.03V170.561H141.217C147.292 170.561 149.281 170.234 152.278 168.762C156.365 166.746 159.008 162.986 159.853 158C161.079 150.862 157.973 144.105 152.169 141.244C149.309 139.827 147.238 139.5 141.217 139.5H135.958V155.03Z" fill="#2E3B52"/>
<path d="M195.354 23.5134C195.354 47.5444 195.409 48.934 196.472 51.0319C197.262 52.5577 199.005 54.1652 200.776 55.0099L202.302 55.7183L226.824 55.8L251.345 55.8545L223.554 28.0635C208.269 12.7784 195.681 0.272462 195.572 0.272462C195.436 0.272462 195.354 10.735 195.354 23.5134Z" fill="#2E3B52"/>
</svg>
