<svg width="279" height="280" viewBox="0 0 279 280" fill="none" xmlns="http://www.w3.org/2000/svg">
<path d="M29.4258 10.5547C23.4316 11.8399 18.4456 16.7344 16.8926 22.8594C16.3477 24.9375 16.3477 26.3321 16.3477 140.547C16.3477 255.172 16.3477 256.129 16.8926 258.262C17.6282 261.16 19.0723 263.621 21.3609 265.945C23.3771 267.969 25.8565 269.418 28.8809 270.375C30.2704 270.785 36.1011 270.84 113.616 270.922C169.416 270.977 197.67 270.922 199.305 270.731C202.357 270.375 204.673 269.609 206.798 268.215C210.122 266.082 212.52 262.938 213.827 259.109L214.563 256.895V185.801C214.563 127.777 214.508 114.27 214.209 112.383C212.71 102.867 207.397 96.086 199.169 93.1329C194.891 91.5743 195.218 91.6016 171.405 91.6016C152.796 91.6016 149.009 91.5469 146.965 91.1915C138.655 89.7149 133.206 84.1915 130.999 74.9766C130.454 72.7071 130.427 71.6133 130.236 50.8594C130.073 29.668 130.046 29.0664 129.473 26.9336C127.294 19.0039 122.062 13.6172 114.434 11.5118C109.557 10.1446 108.548 10.1172 68.5239 10.1446C37.5996 10.1446 30.8971 10.2266 29.4258 10.5547ZM80.7574 142.324C86.3429 143.5 89.6396 146.836 90.5933 152.195C91.0837 154.875 91.0837 155.996 90.6205 158.621C89.6669 164.008 86.2611 167.645 80.7847 169.148C79.5858 169.477 77.5696 169.641 73.1013 169.723L67.0254 169.859V178.035V186.211H60.2139H53.4023V164.063V141.914H66.1535C76.2618 141.914 79.2589 141.996 80.7574 142.324ZM123.861 142.324C130.482 143.473 135.468 148.066 137.402 154.766C138.41 158.211 138.792 161.93 138.601 166.086C138.247 173.168 136.694 177.215 132.825 181.07C130.808 183.094 128.874 184.188 125.713 185.035L123.016 185.773L110.565 185.883L98.0859 185.965V163.953V141.914H109.775C118.984 141.914 121.954 141.996 123.861 142.324ZM179.552 146.699V151.484H169.471H159.39V155.313V159.141H167.972H176.555V163.652V168.164L168.054 168.219L159.526 168.301L159.444 177.242L159.39 186.211H152.578H145.767V164.063V141.914H162.659H179.552V146.699Z" fill="#2E3B52"/>
<path d="M67.0254 155.887V160.836L70.2404 160.727C73.9731 160.59 75.6896 159.961 76.7522 158.348C77.4606 157.309 77.6241 154.902 77.0792 153.863C75.9621 151.703 74.0549 150.938 69.8317 150.938H67.0254V155.887Z" fill="#2E3B52"/>
<path d="M111.709 164.062V176.094H114.243C122.771 176.094 124.869 173.797 124.869 164.473C124.869 156.434 123.343 153.535 118.548 152.414C117.703 152.195 115.823 152.031 114.379 152.031H111.709V164.062Z" fill="#2E3B52"/>
<path d="M129.146 13.7813C129.146 13.9181 129.555 14.4649 130.073 15.0392C131.98 17.1446 133.615 20.8907 135.168 26.6876L136.067 29.9415L136.23 49.7657C136.394 68.9884 136.421 69.672 136.993 71.8868C138.628 78.1212 142.579 82.3868 148.627 84.4376L150.807 85.1759L172.876 85.3399C191.731 85.4767 195.191 85.5587 196.717 85.9142C200.776 86.9259 203.828 88.2657 206.825 90.3712C211.511 93.6798 210.285 92.2853 196.444 78.8868C189.469 72.1056 172.931 56.0821 159.662 43.2306C146.393 30.379 134.105 18.4571 132.362 16.7071C130.591 14.9571 129.146 13.6446 129.146 13.7813Z" fill="#2E3B52"/>
</svg>
