<svg width="218" height="219" viewBox="0 0 218 219" fill="none" xmlns="http://www.w3.org/2000/svg">
<path d="M36.1063 0.383258C33.5176 1.20451 31.8008 2.73751 30.6563 5.22863L29.9751 6.76163L30.0296 109.801L30.1113 212.841L30.7381 214.127C31.5556 215.77 33.0816 217.303 34.7711 218.179L36.1063 218.863H109H181.894L183.12 218.206C184.782 217.33 186.281 215.852 187.153 214.209L187.889 212.841L187.971 132.495C188.025 79.0316 187.943 51.8209 187.78 51.1913C187.398 49.8773 144.97 1.17713 143.608 0.492758C142.708 0.0273826 139.602 7.61263e-06 89.9251 0.0273826C48.2053 0.0273826 36.9783 0.109508 36.1063 0.383258ZM137.613 31.3991C137.749 53.8466 137.749 54.1751 138.321 54.9143C138.621 55.3249 139.22 55.9271 139.629 56.2283C140.365 56.8031 140.665 56.8031 159.985 56.8853L179.578 56.9674V101.424V145.909H109H38.4226V77.1975V8.48626L87.9631 8.54101L137.476 8.62313L137.613 31.3991ZM70.3051 156.831C74.3926 157.653 76.6816 158.748 79.1341 160.992C82.1588 163.757 83.6303 167.097 83.8483 171.641C84.0118 175.173 83.5213 177.746 82.1588 180.511C80.8781 183.084 79.4338 184.727 76.9813 186.396C73.1118 188.97 68.9153 190.065 62.4843 190.092L58.3151 190.119V199.345V208.598H52.5926H46.8701V182.892V157.215L47.9056 157.05C48.7776 156.914 51.5026 156.64 56.4076 156.202C59.4051 155.928 67.7708 156.311 70.3051 156.831ZM114.532 156.722C118.974 157.516 121.59 158.802 124.287 161.485C127.149 164.36 128.32 167.152 128.538 171.641C128.702 175.173 128.211 177.828 126.849 180.538C125.595 183.084 124.124 184.727 121.671 186.396C117.802 188.97 113.605 190.065 107.174 190.092L103.005 190.119V199.345V208.598H97.2826H91.5601V182.892V157.215L92.5956 157.05C93.5493 156.886 98.2091 156.448 101.234 156.202C104.095 155.983 112.216 156.311 114.532 156.722ZM172.166 161.43L172.084 166.303L165.081 166.385L158.05 166.44V187.519V208.598H152.055H146.06V187.519V166.44H139.111H132.163V161.513V156.585H152.191H172.22L172.166 161.43Z" fill="#2E3B52"/>
<path d="M106.82 61.6485V79.2506L119.137 66.8497L131.427 54.4762L130.637 53.6276C127.857 50.6711 122.271 47.2492 117.884 45.8257C114.805 44.8402 110.69 44.0737 108.265 44.0737H106.82V61.6485Z" fill="#2E3B52"/>
<path d="M98.3726 56.0093C93.5494 56.721 90.4156 57.6244 86.9004 59.4312C77.0631 64.386 70.3324 73.146 67.9616 84.0413C67.2804 87.1894 67.2804 94.1427 67.9616 97.455C70.1689 108.159 76.6816 117.083 85.8104 121.901C95.3479 126.965 106.33 127.431 116.031 123.242C128.184 117.986 136.25 106.653 137.231 93.4035L137.422 90.885H119.927H102.46V73.365V55.845L100.771 55.8724C99.8169 55.8998 98.7541 55.9545 98.3726 56.0093Z" fill="#2E3B52"/>
<path d="M119.273 72.7902L107.065 85.41H124.505H141.973V83.658C141.973 79.935 140.365 73.6662 138.403 69.7515C137.149 67.233 134.86 63.8933 133.062 61.9223L131.481 60.1977L119.273 72.7902Z" fill="#2E3B52"/>
<path d="M59.1324 165.29L58.4512 165.509V173.147V180.812L60.3314 181.058C63.8739 181.551 67.6617 180.593 69.9779 178.622C70.4412 178.239 71.1497 177.226 71.5584 176.405C72.1579 175.173 72.2942 174.516 72.2942 172.791C72.2942 170.355 71.8854 169.178 70.4684 167.59C68.8607 165.81 67.2257 165.263 63.2199 165.181C61.3397 165.126 59.5139 165.181 59.1324 165.29Z" fill="#2E3B52"/>
<path d="M103.822 165.29L103.141 165.509V173.147V180.812L105.021 181.058C106.302 181.25 107.61 181.223 109.027 181.004C114.096 180.264 116.957 177.363 117.011 172.928C117.039 170.464 116.575 169.123 115.213 167.645C113.523 165.783 111.943 165.263 107.91 165.181C106.03 165.126 104.204 165.181 103.822 165.29Z" fill="#2E3B52"/>
</svg>
