<svg width="279" height="280" viewBox="0 0 279 280" fill="none" xmlns="http://www.w3.org/2000/svg">
<path d="M38.771 4.10163C35.7195 4.37507 33.785 4.97663 32.4772 6.12507C31.2239 7.21882 30.6244 8.64069 30.243 11.3477C30.025 12.9337 29.9705 48.0157 30.025 141.367L30.1068 269.199L30.7334 271.004C31.8778 274.422 33.7577 275.434 39.9154 275.926C42.2313 276.09 77.3515 276.172 142.361 276.09C248.157 276.008 242.735 276.063 245.514 274.641C247.776 273.492 248.593 271.66 249.029 266.656C249.22 264.496 249.302 230.398 249.247 160.918L249.165 58.379L248.539 57.1485C247.64 55.4258 197.888 5.49616 196.172 4.59382L194.946 3.96491L118.112 3.93757C75.853 3.91022 40.1606 3.99226 38.771 4.10163ZM185.11 17.2266C185.491 17.3633 186.009 17.8008 186.281 18.2383C186.745 18.9219 186.772 20.3438 186.935 39.2383C187.044 53.4298 187.208 59.8282 187.426 60.7032C188.161 63.4923 189.496 64.9141 192.194 65.8165C193.42 66.2266 195.954 66.2813 213.882 66.418C232.845 66.5821 234.262 66.6094 234.943 67.0743C235.379 67.3477 235.815 67.8673 235.978 68.2501C236.142 68.6876 236.196 90.3165 236.169 127.039L236.087 185.09L235.461 185.719L234.834 186.348L140.235 186.43C88.2227 186.457 45.2283 186.43 44.7379 186.348C44.193 186.238 43.6753 185.91 43.3756 185.445C42.9397 184.762 42.9124 180.195 42.9124 101.992C42.9124 56.4923 43.0214 18.9219 43.1304 18.5118C43.5936 16.8712 38.771 16.9805 114.76 16.9532C158.409 16.9532 184.674 17.0626 185.11 17.2266ZM73.7005 204.641C80.9207 205.051 86.4244 208.195 88.9311 213.309C90.2661 216.07 90.7293 218.121 90.7293 221.211C90.7021 229.277 86.7786 235.211 79.7219 237.781C76.5886 238.902 73.9457 239.34 69.6953 239.367L65.6629 239.395V248.91V258.398L59.8867 258.344L54.0833 258.262V231.875V205.488L56.3992 205.133C58.6062 204.805 68.7145 204.313 70.431 204.449C70.8942 204.477 72.3655 204.586 73.7005 204.641ZM121.109 205.106C129.773 206.828 134.732 212.762 134.65 221.348C134.596 229.523 130.59 235.348 123.261 237.918C120.155 238.984 117.975 239.313 113.698 239.367L109.529 239.395V248.883V258.398H103.807H98.0858V231.93V205.434L100.756 205.078C103.726 204.695 112.199 204.34 115.932 204.477C117.294 204.531 119.61 204.805 121.109 205.106ZM177.372 210V215.195H170.424H163.476V236.797V258.398H157.618H151.761V236.797V215.195H144.949H138.138V210V204.805H157.755H177.372V210ZM197.616 210.82C199.087 214.047 200.94 218.203 201.73 220.035L203.174 223.371L204.482 220.035C205.19 218.203 206.934 214.02 208.378 210.738L210.994 204.805H217.614H224.262L223.935 205.406C223.772 205.762 220.611 211.477 216.96 218.148C213.282 224.793 210.231 230.453 210.176 230.727C210.094 231 213.255 236.988 217.505 244.645C221.62 252.055 224.916 258.18 224.835 258.262C224.753 258.344 221.756 258.398 218.187 258.398H211.675L208.351 251.481C206.525 247.707 204.455 243.387 203.801 241.938C203.119 240.461 202.52 239.258 202.438 239.258C202.357 239.258 201.948 240.188 201.539 241.336C201.103 242.484 199.278 246.777 197.48 250.906L194.183 258.398H187.698C183.039 258.398 181.186 258.316 181.186 258.098C181.186 257.934 184.429 251.836 188.407 244.563C192.384 237.289 195.627 231.301 195.627 231.219C195.627 231.137 182.085 205.926 181.541 204.996C181.486 204.887 184.456 204.832 188.161 204.859L194.918 204.941L197.616 210.82Z" fill="#2E3B52"/>
<path d="M136.366 67.0197C126.53 67.5392 116.858 71.2306 108.848 77.4923C106.477 79.3517 101.164 84.7931 99.8838 86.6251C99.4751 87.254 99.1754 87.9376 99.2571 88.129C99.5024 88.7579 139.2 111.617 139.799 111.481C140.671 111.234 179.797 88.4845 179.933 88.129C180.314 87.1447 173.612 79.9806 169.47 76.9454C165.874 74.2931 164.621 73.5275 161.024 71.8048C153.123 68.0314 145.467 66.5548 136.366 67.0197Z" fill="#2E3B52"/>
<path d="M93.8627 96.9609C92.1735 101.008 91.0019 105.219 90.3207 109.758C89.6668 113.969 89.8576 122.227 90.7022 126.438C94.3804 144.703 107.704 159.387 125.332 164.637C128.438 165.539 131.762 166.223 133.642 166.332L135.004 166.387L135.086 142.98C135.141 120.969 135.113 119.547 134.677 119.164C134.051 118.59 95.4158 96.2227 94.7891 96.0586C94.4349 95.9492 94.1897 96.1953 93.8627 96.9609Z" fill="#2E3B52"/>
<path d="M164.294 107.488C153.422 113.805 144.377 119.164 144.186 119.41C143.941 119.766 143.859 124.797 143.914 143.117L143.995 166.387L145.494 166.305C149.717 166.086 156.283 164.145 161.433 161.629C173.448 155.723 182.549 145.277 186.744 132.617C190.068 122.555 190.123 111.344 186.881 101.473C185.736 97.9453 184.837 95.9766 184.401 96.0039C184.211 96.0039 175.165 101.172 164.294 107.488Z" fill="#2E3B52"/>
<path d="M67.8428 213.746C67.3251 213.801 66.6167 213.91 66.2897 213.965L65.6631 214.102V221.895V229.688L66.3715 229.852C66.7529 229.961 68.3604 229.988 69.968 229.906C73.1558 229.77 74.9813 229.168 76.7522 227.664C78.6595 226.051 79.6403 222.496 79.0137 219.488C78.1418 215.25 73.9731 213.117 67.8428 213.746Z" fill="#2E3B52"/>
<path d="M111.845 213.719C111.246 213.801 110.483 213.91 110.156 213.965L109.529 214.102V221.895V229.688L110.238 229.852C110.619 229.961 112.227 229.988 113.834 229.906C118.275 229.715 120.727 228.43 122.28 225.449C122.907 224.246 122.989 223.754 123.016 221.484C123.016 219.324 122.907 218.695 122.417 217.766C121.599 216.234 119.774 214.731 118.166 214.238C116.722 213.801 113.562 213.555 111.845 213.719Z" fill="#2E3B52"/>
</svg>
