<svg width="209" height="209" viewBox="0 0 209 209" fill="none" xmlns="http://www.w3.org/2000/svg">
<path d="M51.3791 0.136002C51.3246 0.217643 50.2089 0.408138 48.9571 0.571419C47.7052 0.7347 46.5623 0.979622 46.399 1.08848C46.2629 1.19733 45.6914 1.38783 45.1744 1.49668C44.6573 1.60553 44.0586 1.79603 43.8137 1.9321C43.596 2.04095 42.8068 2.42194 42.0448 2.7485C39.1874 4.05475 36.6565 5.82363 34.3162 8.19121C33.0099 9.49746 31.8397 10.8854 31.8397 11.1303C31.8397 11.2663 31.5948 11.5657 31.2955 11.8378C30.9961 12.11 30.7512 12.491 30.7512 12.6814C30.7512 12.8719 30.6696 13.0624 30.5607 13.1169C30.343 13.1985 28.9823 15.8654 28.2203 17.6887C27.7305 18.8589 27.2407 20.655 26.9413 22.4511C26.642 24.22 26.642 184.78 26.9413 186.549C27.2407 188.345 27.7305 190.141 28.2203 191.311C28.7646 192.617 30.3158 195.774 30.4791 195.937C30.7512 196.21 31.8397 197.815 31.8397 197.978C31.8397 198.06 32.0575 198.332 32.3024 198.604C32.5745 198.877 33.2276 199.584 33.7447 200.183C35.949 202.632 38.8608 204.755 42.0448 206.224C42.8068 206.578 43.596 206.959 43.8137 207.068C44.0586 207.204 44.6573 207.394 45.1744 207.503C45.6914 207.612 46.2629 207.803 46.399 207.911C46.5623 208.02 47.7052 208.292 48.9843 208.483C52.386 209.027 156.587 209.054 160.016 208.483C161.295 208.292 162.438 208.02 162.601 207.884C162.737 207.748 163.091 207.639 163.417 207.639C163.717 207.612 164.451 207.394 165.05 207.095C165.649 206.796 166.275 206.578 166.411 206.551C166.873 206.551 171.01 204.047 172.289 203.013C174.139 201.543 177.16 198.332 177.16 197.87C177.16 197.734 177.405 197.434 177.704 197.162C178.004 196.89 178.249 196.509 178.249 196.318C178.249 196.128 178.33 195.937 178.466 195.883C178.657 195.801 180.018 193.134 180.779 191.311C181.324 190.059 181.786 188.263 182.086 186.277C182.222 185.297 182.303 159.635 182.276 123.005L182.195 61.3665L152.886 61.2848L123.549 61.2304V31.0506C123.549 14.4503 123.468 0.680273 123.386 0.435351C123.223 0.0543617 119.821 -6.54149e-05 87.3826 -6.54149e-05C67.6528 -6.54149e-05 51.4607 0.0543617 51.3791 0.136002ZM142.191 114.27C142.953 114.433 143.606 114.705 143.633 114.841C143.687 115.004 143.905 115.113 144.123 115.113C144.585 115.113 146.79 116.229 146.899 116.528C146.953 116.637 147.144 116.746 147.307 116.746C147.742 116.746 150.219 119.222 150.219 119.658C150.219 119.848 150.328 120.012 150.436 120.012C150.79 120.012 151.851 122.406 151.851 123.168C151.851 123.577 151.661 123.903 151.389 123.985C150.845 124.175 149.402 124.774 148.178 125.318C146.109 126.244 145.347 126.543 144.966 126.543C144.722 126.543 144.504 126.652 144.449 126.788C144.422 126.897 144.096 127.114 143.742 127.196C143.225 127.359 143.116 127.278 142.98 126.57C142.871 126.108 142.708 125.727 142.572 125.727C142.436 125.727 142.327 125.59 142.327 125.4C142.327 124.965 141.157 123.277 140.857 123.277C140.721 123.277 140.367 123.06 140.068 122.787C139.66 122.434 139.061 122.325 137.102 122.325H134.653L133.863 123.277C132.911 124.393 132.911 124.475 133.646 125.509C134.299 126.434 135.877 127.169 137.7 127.468C138.381 127.577 139.306 127.768 139.741 127.904C140.204 128.04 141.238 128.339 142.055 128.584C144.531 129.319 147.552 130.897 148.722 132.094C151.144 134.571 151.879 136.503 151.906 140.531C151.906 144.422 151.307 146.055 148.994 148.45C148.042 149.457 145.728 151.035 145.211 151.035C145.048 151.035 144.776 151.144 144.613 151.28C144.477 151.416 143.633 151.743 142.735 152.015C140.721 152.641 133.346 152.777 132.748 152.178C132.584 152.015 132.258 151.852 132.067 151.852C131.523 151.852 128.992 150.681 128.992 150.436C128.992 150.328 128.856 150.219 128.693 150.219C128.285 150.219 126.325 148.695 125.291 147.579C123.985 146.164 122.461 142.925 122.461 141.565C122.461 140.476 122.542 140.367 123.413 139.986C123.93 139.796 124.665 139.605 125.046 139.605C125.427 139.605 125.726 139.497 125.726 139.36C125.726 139.224 126.189 139.034 126.761 138.925C127.305 138.843 128.285 138.571 128.938 138.354C130.652 137.782 130.788 137.837 131.169 139.252C131.36 139.986 131.686 140.748 131.904 140.993C132.094 141.211 132.258 141.51 132.258 141.592C132.258 141.837 133.292 142.871 133.537 142.871C133.618 142.871 133.918 143.034 134.135 143.252C134.38 143.443 135.278 143.824 136.149 144.096C137.646 144.558 137.755 144.558 139.279 144.096C141.211 143.497 142.027 142.599 142.027 141.102C142.027 140.449 141.837 139.796 141.565 139.469C140.83 138.626 138.136 137.401 136.231 137.047C135.659 136.938 134.979 136.748 134.734 136.612C134.489 136.476 133.836 136.285 133.292 136.204C132.72 136.122 132.258 135.932 132.258 135.796C132.258 135.632 132.067 135.523 131.85 135.523C130.951 135.523 127.767 133.755 126.57 132.557C125.101 131.115 124.094 129.591 124.094 128.774C124.094 128.475 123.93 128.176 123.767 128.094C123.495 128.012 123.413 127.142 123.413 124.91C123.413 122.679 123.495 121.808 123.767 121.699C123.93 121.644 124.094 121.4 124.094 121.182C124.094 120.474 125.209 118.869 126.679 117.481C128.121 116.066 130.462 114.787 132.666 114.188C134.272 113.725 140.068 113.78 142.191 114.27ZM70.0204 116.066C70.5646 117.018 71.0273 117.916 71.0273 118.052C71.0273 118.216 71.1361 118.379 71.245 118.433C71.4899 118.515 73.4765 121.753 73.4765 122.053C73.4765 122.134 73.6398 122.406 73.8575 122.624C74.2112 122.951 74.3201 122.896 74.8099 122.298C75.1365 121.889 75.3814 121.4 75.3814 121.209C75.3814 120.991 75.5175 120.828 75.6536 120.828C75.8168 120.828 75.9257 120.692 75.9257 120.529C75.9257 120.229 77.749 117.045 78.0756 116.746C78.1572 116.664 78.511 116.12 78.8103 115.521L79.409 114.433L84.6068 114.351C88.7705 114.297 89.8046 114.351 89.8046 114.651C89.8046 114.841 89.6685 115.14 89.5052 115.304C89.1787 115.63 88.7161 116.392 88.1174 117.562C87.9269 117.943 87.7092 118.297 87.6003 118.379C87.5187 118.46 87.3554 118.705 87.2737 118.923C87.1649 119.141 86.8383 119.685 86.539 120.148C86.2396 120.583 85.8586 121.263 85.6681 121.644C85.4776 122.025 85.2599 122.379 85.1511 122.461C85.0694 122.543 84.9062 122.787 84.8245 123.005C84.7157 123.223 84.3891 123.767 84.0898 124.23C83.7904 124.665 83.3822 125.373 83.2189 125.781C83.0284 126.216 82.7835 126.543 82.6746 126.543C82.5658 126.543 82.4569 126.706 82.4569 126.924C82.4569 127.142 82.2937 127.495 82.1304 127.686C81.5861 128.257 81.1235 129.047 80.7969 129.863C80.6336 130.298 80.3887 130.625 80.2799 130.625C79.6812 130.625 79.7084 132.258 80.3343 133.401C80.6881 134.054 81.0146 134.625 81.0963 134.707C81.45 135.061 83.2733 138.218 83.2733 138.49C83.2733 138.653 83.3822 138.789 83.4911 138.789C83.5999 138.789 83.8448 139.116 84.0081 139.524C84.3891 140.367 84.8789 141.157 85.396 141.728C85.5593 141.919 85.7226 142.272 85.7226 142.49C85.7226 142.708 85.8314 142.871 85.9403 142.871C86.0491 142.871 86.2941 143.198 86.4845 143.606C86.6478 144.041 87.056 144.722 87.3554 145.184C87.6547 145.62 88.0085 146.246 88.1446 146.545C88.2806 146.844 89.0698 148.178 89.8862 149.538C90.7299 150.872 91.3286 152.069 91.2469 152.178C91.1925 152.314 88.8793 152.396 86.1036 152.396C81.1507 152.396 81.0691 152.396 80.8241 151.77C80.4976 151.035 79.9805 150.246 79.5451 149.729C79.3546 149.538 79.1913 149.185 79.1913 148.967C79.1913 148.749 79.0825 148.586 78.9736 148.586C78.8648 148.586 78.6198 148.259 78.4293 147.824C78.2661 147.416 77.8579 146.708 77.5585 146.273C77.2592 145.81 76.9326 145.266 76.8237 145.048C76.7421 144.83 76.5788 144.585 76.4972 144.504C76.3883 144.422 76.1706 144.068 75.9801 143.687C74.5378 140.884 74.2657 140.667 73.5853 141.919C73.3132 142.436 72.9866 142.871 72.8778 142.871C72.7417 142.871 72.6601 143.007 72.6601 143.17C72.6601 143.47 70.8368 146.654 70.5102 146.953C70.4286 147.035 70.0476 147.633 69.6938 148.314C69.34 148.994 68.6325 150.191 68.1426 150.953L67.2174 152.396H62.1829C57.992 152.396 57.1483 152.341 57.1483 152.015C57.1483 151.797 57.3388 151.443 57.5565 151.198C57.7743 150.981 57.9648 150.709 57.9648 150.627C57.9648 150.409 59.8697 147.171 60.1146 146.953C60.1963 146.871 60.55 146.273 60.9038 145.592C61.2576 144.912 61.7746 143.987 62.0468 143.551C62.3461 143.089 62.7271 142.436 62.9176 142.055C63.1081 141.674 63.3258 141.32 63.4347 141.238C63.5163 141.157 63.6796 140.912 63.7612 140.694C63.8701 140.476 64.1967 139.905 64.496 139.469C64.7954 139.007 65.2036 138.326 65.3668 137.891C65.5573 137.483 65.8023 137.156 65.9111 137.156C66.02 137.156 66.1288 136.993 66.1288 136.775C66.1288 136.558 66.2921 136.204 66.4826 136.013C66.918 135.523 67.4079 134.761 67.8161 133.891C68.0065 133.51 68.2787 133.129 68.4148 133.02C68.7685 132.775 68.7685 130.924 68.4148 130.679C68.061 130.434 66.1288 127.223 66.1288 126.869C66.1288 126.706 66.02 126.543 65.9111 126.488C65.6118 126.38 63.6796 123.141 63.6796 122.787C63.6796 122.624 63.5707 122.461 63.4619 122.406C63.1625 122.298 61.2304 119.059 61.2304 118.705C61.2304 118.542 61.1215 118.379 61.0127 118.324C60.7133 118.216 58.7812 114.977 58.7812 114.596C58.7812 114.378 60.3051 114.297 63.8973 114.297H68.9862L70.0204 116.066ZM104.772 128.992V143.687H112.936H121.1L121.236 144.286C121.318 144.64 121.345 146.572 121.318 148.586L121.236 152.26H108.038H94.8391L94.7575 133.265L94.703 114.297H99.7375H104.772V128.992Z" fill="#2E3B52"/>
</svg>
