<svg width="279" height="279" viewBox="0 0 279 279" fill="none" xmlns="http://www.w3.org/2000/svg">
<path d="M35.2292 14.6856C32.4501 15.6393 30.6246 17.3558 29.2078 20.3528L28.4722 21.9331V139.5V257.067L29.344 258.892C30.4066 261.127 32.0687 262.843 34.2211 263.906L35.8286 264.696H139.5H243.171L244.779 263.906C246.931 262.843 248.593 261.127 249.656 258.892L250.528 257.067V139.5V21.9331L249.656 20.1076C248.593 17.8734 246.931 16.1569 244.779 15.0943L243.171 14.3042L139.909 14.2497C41.0871 14.1952 36.5915 14.1952 35.2292 14.6856ZM236.496 108.439V188.815H139.5H42.5039V108.439V28.0635H139.5H236.496V108.439ZM161.433 204.073C165.656 204.7 171.051 206.607 170.751 207.397C170.697 207.588 170.043 209.904 169.334 212.52C168.599 215.135 167.972 217.342 167.945 217.397C167.89 217.451 166.882 217.07 165.738 216.525C161.188 214.427 157.237 214.182 156.42 215.953C155.739 217.478 156.202 217.914 161.024 220.23C163.041 221.211 165.357 222.519 166.147 223.146C169.28 225.652 170.942 229.221 170.942 233.499C170.942 240.011 167.019 245.16 160.779 246.85C157.21 247.803 152.006 247.64 147.756 246.441C145.004 245.651 141.952 244.207 141.952 243.689C141.952 243.498 142.334 241.073 142.77 238.322C143.233 235.542 143.587 233.199 143.587 233.145C143.587 233.063 144.65 233.526 145.985 234.207C148.845 235.679 151.979 236.496 154.676 236.496C156.556 236.496 156.774 236.442 157.51 235.706C158.463 234.725 158.518 233.799 157.646 232.927C156.938 232.246 156.829 232.164 152.306 230.012C146.393 227.205 143.314 222.955 143.314 217.669C143.314 208.46 151.107 202.602 161.433 204.073ZM123.152 219.74V234.861L130.591 234.916L138.001 234.998L138.083 240.91L138.138 246.85H124.106H110.074V225.734V204.618H116.613H123.152V219.74ZM84.5991 209.168C85.7707 211.239 86.8878 213.146 87.0513 213.419C87.351 213.855 87.6779 213.391 89.7759 209.686L92.1463 205.436H99.094H106.042L105.497 206.307C105.197 206.798 102.909 210.694 100.402 214.972C97.8952 219.249 95.4976 223.282 95.1161 223.963L94.3805 225.189L100.702 235.542L107.05 245.896L100.048 245.978C93.5903 246.032 93.0182 246.005 92.6912 245.569C92.4732 245.297 91.1654 243.144 89.7759 240.774L87.242 236.469L84.4356 241.237L81.6021 246.032H74.5998C70.7309 246.032 67.5703 245.978 67.5703 245.923C67.5703 245.869 70.4039 241.155 73.8369 235.433C77.2972 229.712 80.1035 224.971 80.1035 224.917C80.1035 224.835 79.8038 224.317 79.4496 223.745C78.4688 222.219 68.6602 205.681 68.6602 205.545C68.6602 205.49 71.7662 205.436 75.5807 205.436H82.5012L84.5991 209.168ZM189.251 209.522C190.505 211.702 191.622 213.5 191.758 213.555C191.894 213.582 193.039 211.784 194.292 209.522L196.581 205.436H203.474C207.234 205.436 210.34 205.49 210.34 205.545C210.34 205.599 209.577 206.934 208.678 208.487C205.517 213.773 198.896 225.107 198.896 225.189C198.896 225.271 209.305 242.408 210.694 244.588C211.103 245.242 211.43 245.814 211.43 245.896C211.43 245.978 208.242 246.032 204.373 246.032H197.316L194.51 241.237C192.575 237.913 191.649 236.578 191.486 236.823C191.377 237.014 190.096 239.166 188.652 241.591L186.036 246.032H178.952C175.083 246.032 171.95 245.95 172.005 245.814C179.797 232.9 184.265 225.407 184.374 225.134C184.483 224.889 175.737 209.795 173.34 206.035L172.931 205.436L179.96 205.49L186.99 205.572L189.251 209.522Z" fill="#2E3B52"/>
<path d="M170.833 71.2485V83.373H188.952H207.07V71.2485V59.124H188.952H170.833V71.2485Z" fill="#2E3B52"/>
<path d="M88.4408 62.1756C88.6588 62.5025 90.7022 65.1182 104.026 81.82C107.213 85.8524 109.883 89.2854 109.965 89.5034C110.047 89.6941 105.197 96.1242 98.7943 104.325C92.555 112.281 87.46 118.875 87.46 118.929C87.46 119.011 92.2008 119.065 98.0314 119.065H108.576L114.352 111.219C117.54 106.914 120.319 103.181 120.509 102.908C120.836 102.445 121.436 103.181 126.967 110.728L133.07 119.065H144.214H155.357L154.431 117.894C153.913 117.267 149.445 111.6 144.513 105.306C139.582 99.0123 134.705 92.8274 133.697 91.5469C132.688 90.2663 131.926 89.0947 131.98 88.9313C132.089 88.6588 151.761 63.8376 153.069 62.3118C153.45 61.8759 152.932 61.8486 142.742 61.8486L132.007 61.8759L126.449 69.2323C123.398 73.292 120.809 76.507 120.7 76.3708C120.591 76.2618 118.194 72.9378 115.387 68.9871L110.238 61.8486H99.2575C90.5115 61.8486 88.2773 61.9304 88.4408 62.1756Z" fill="#2E3B52"/>
<path d="M170.833 108.439V120.428H188.952H207.07V108.439V96.4512H188.952H170.833V108.439Z" fill="#2E3B52"/>
<path d="M71.9297 145.767V157.755H90.0483H108.167V145.767V133.778H90.0483H71.9297V145.767Z" fill="#2E3B52"/>
<path d="M121.518 145.767V157.755H139.5H157.482V145.767V133.778H139.5H121.518V145.767Z" fill="#2E3B52"/>
<path d="M170.833 145.767V157.755H188.952H207.07V145.767V133.778H188.952H170.833V145.767Z" fill="#2E3B52"/>
</svg>
