<svg width="68" height="53" viewBox="0 0 68 53" fill="none" xmlns="http://www.w3.org/2000/svg">
<path d="M28.1989 3.14816L22.6667 6.3731V10.7498C22.6667 14.1283 22.974 15.2033 23.7424 15.2033C24.5107 15.2033 24.9718 14.2051 25.1254 12.1319L25.3559 9.13733L29.4283 11.4409L33.4238 13.8212V18.3514C33.4238 20.8085 33.1932 22.8817 32.9627 22.8817C32.7322 22.8817 31.5029 22.2674 30.2735 21.5764C28.2757 20.4246 27.8915 20.3478 27.2769 21.346C26.739 22.1906 27.3537 22.8817 29.6588 24.2638C31.2723 25.262 32.6554 26.1834 32.6554 26.337C32.6554 26.4906 30.504 27.8727 27.9684 29.4851L23.2814 32.3261L19.9006 30.7137C18.0565 29.7923 16.5198 29.3316 16.5198 29.7155C16.5198 30.1762 17.1345 30.6369 17.9028 30.8673C18.6712 31.1744 20.0542 32.019 20.9763 32.9404C22.4362 34.2458 22.6667 35.3207 22.6667 40.3885V46.3009L28.0452 49.3722C30.965 51.0615 33.5774 52.4436 33.8079 52.3668C34.1153 52.29 36.7277 50.9079 39.5707 49.2955L44.8724 46.3009L45.1029 39.7742L45.3334 33.2476L48.6373 31.4815C50.4814 30.4833 51.7876 29.4083 51.5571 29.178C51.3266 28.9476 49.6362 29.5619 47.7921 30.5601L44.4882 32.3261L39.3402 29.3316L34.1921 26.337L37.2656 24.5709C38.956 23.5728 40.339 22.2674 40.339 21.6531C40.339 20.271 38.7255 20.271 36.8046 21.7299C34.4995 23.496 34.1921 23.1888 34.1921 18.2746V13.6676L38.2644 11.3641L42.2599 9.06055L42.4904 12.1319C42.6441 14.2051 43.1051 15.2033 43.8735 15.2033C44.6419 15.2033 44.9492 14.1283 44.9492 10.7498C44.9492 6.83381 44.7187 6.14275 43.2588 5.3749C42.2599 4.9142 39.7243 3.53209 37.5729 2.22675L33.7311 1.14441e-05L28.1989 3.14816ZM41.3379 7.52486C41.9526 8.06235 35.0373 12.1319 33.5006 12.1319C33.0396 12.1319 31.0418 11.1337 29.1209 9.90517L25.5865 7.75521L29.7356 5.3749L33.8079 2.99459L37.2656 4.99098C39.1865 6.06596 40.9537 7.21772 41.3379 7.52486ZM41.3379 33.6315C41.6452 33.9386 40.0317 35.1672 37.7266 36.3957L33.5006 38.5457L30.1966 36.7796C25.2791 34.0922 25.2791 34.0154 29.7356 31.4815L33.8079 29.1012L37.2656 31.0976C39.1865 32.1726 41.0305 33.3243 41.3379 33.6315ZM33.2701 44.3813C33.5006 49.7562 33.5774 49.7562 28.1221 46.3009C24.9718 44.3813 24.9718 44.3045 24.9718 39.6974V35.0136L29.0441 37.3171L33.0396 39.5439L33.2701 44.3813ZM42.6441 39.7742C42.6441 44.3045 42.6441 44.3813 39.4938 46.3009C34.1921 49.6794 34.1921 49.6794 34.1921 44.5348V39.9278L37.8803 37.6243C39.878 36.3189 41.7221 35.2439 42.1063 35.2439C42.4136 35.1672 42.6441 37.2403 42.6441 39.7742Z" fill="#243FD6"/>
<path d="M5.60905 16.2785L0 19.5034V26.3372V33.171L5.60905 36.3959L11.2949 39.6208L14.6757 37.7012C16.5198 36.6263 18.2102 35.4745 18.5175 35.0906C19.2859 33.7853 16.5198 33.4781 14.5989 34.7067C13.6 35.3977 12.5243 35.9352 12.2938 35.9352C12.0633 35.9352 11.9096 33.7853 12.0633 31.1746C12.2938 26.4908 12.2938 26.414 15.7514 24.3408C17.6723 23.189 19.4396 22.1908 19.8238 22.1908C20.1311 22.1141 20.3616 23.4962 20.3616 25.1854C20.3616 27.4122 20.669 28.2568 21.5142 28.2568C22.3594 28.2568 22.6667 27.3354 22.6667 24.4176C22.6667 20.8855 22.8972 20.4248 25.2023 19.0427C26.5085 18.1981 28.0452 17.3534 28.4294 17.1999C28.8904 17.0463 28.9673 16.7392 28.6599 16.432C28.4294 16.1249 26.8159 16.6624 25.1255 17.5838L22.1289 19.3498L16.7503 16.2017L11.2949 13.0535L5.60905 16.2785ZM14.9062 18.1213C16.7503 19.273 18.2102 20.5016 18.2102 20.9623C18.1334 21.3462 16.5966 22.5748 14.6757 23.6497L11.2181 25.5693L7.68363 23.6497C5.68589 22.5748 3.91865 21.4998 3.76498 21.1926C3.45763 20.7319 10.2192 16.0481 11.1413 16.0481C11.3718 16.1249 13.0622 17.0463 14.9062 18.1213ZM10.3729 31.1746V36.012L6.53108 33.862L2.68927 31.7121V26.9515V22.1141L6.53108 24.264L10.3729 26.3372V31.1746Z" fill="#243FD6"/>
<path d="M50.7886 16.2016L45.4869 19.3497L42.4903 17.5837C40.7999 16.6623 39.1864 16.1248 38.9559 16.4319C38.6485 16.739 38.8022 17.0462 39.1864 17.1997C39.6474 17.3533 41.1073 18.1979 42.4903 19.0426C44.7186 20.4247 44.9491 20.8854 44.9491 24.4175C44.9491 27.3353 45.2564 28.2567 46.1016 28.2567C46.9468 28.2567 47.2542 27.412 47.2542 25.1853C47.2542 23.496 47.4847 22.1139 47.8689 22.1907C48.1762 22.1907 49.9434 23.1889 51.8644 24.3407C55.322 26.4138 55.322 26.4906 55.5525 31.1745C55.7062 33.7851 55.6293 35.9351 55.3988 35.9351C55.1683 35.9351 53.8621 35.244 52.4022 34.3994C49.9434 32.9405 49.7129 32.9405 49.2519 34.0923C48.9446 34.7833 48.8677 35.4744 48.9446 35.5512C49.0982 35.6279 50.7118 36.5494 52.7096 37.6243L56.1672 39.6975L62.0836 36.2422L68 32.7869V26.3371V19.8872L63.6203 17.2765C55.8598 12.6695 56.6282 12.7463 50.7886 16.2016ZM63.3898 20.9622C63.313 21.4229 61.6994 22.5746 59.7785 23.6496L56.3209 25.4924L52.1717 23.2657L48.0225 21.039L52.0949 18.5051L56.0903 16.048L59.8553 18.1212C61.8531 19.3497 63.4666 20.5783 63.3898 20.9622ZM64.9265 26.8746V31.712L61.0847 33.8619L57.2429 36.0119V31.1745V26.3371L60.931 24.2639C62.9288 23.1121 64.6192 22.1907 64.7729 22.1907C64.8497 22.1139 64.9265 24.2639 64.9265 26.8746Z" fill="#243FD6"/>
</svg>
